<svg xmlns="http://www.w3.org/2000/svg" xmlns:xlink="http://www.w3.org/1999/xlink" width="45" zoomAndPan="magnify" viewBox="0 0 33.75 33.749998" height="45" preserveAspectRatio="xMidYMid meet" version="1.0"><defs><g/><clipPath id="bc93000fc6"><path d="M 0.476562 4 L 20 4 L 20 24 L 0.476562 24 Z M 0.476562 4 " clip-rule="nonzero"/></clipPath><clipPath id="ee27f4c6e3"><rect x="0" width="21" y="0" height="28"/></clipPath><clipPath id="26a9f79d9e"><path d="M 0.0078125 4 L 17.875 4 L 17.875 24 L 0.0078125 24 Z M 0.0078125 4 " clip-rule="nonzero"/></clipPath><clipPath id="c0fdb350a5"><rect x="0" width="18" y="0" height="28"/></clipPath><clipPath id="e55a365384"><path d="M 5.167969 25.648438 L 26.648438 25.648438 L 26.648438 29.1875 L 5.167969 29.1875 Z M 5.167969 25.648438 " clip-rule="nonzero"/></clipPath><clipPath id="339858b5a8"><path d="M 0.167969 0.648438 L 21.648438 0.648438 L 21.648438 4.1875 L 0.167969 4.1875 Z M 0.167969 0.648438 " clip-rule="nonzero"/></clipPath><clipPath id="e84f6f14e3"><rect x="0" width="22" y="0" height="5"/></clipPath><clipPath id="1a8ae97b95"><rect x="0" width="8" y="0" height="6"/></clipPath></defs><g transform="matrix(1, 0, 0, 1, 0.000000000000000056, 3)"><g clip-path="url(#ee27f4c6e3)"><g clip-path="url(#bc93000fc6)"><g fill="#ffffff" fill-opacity="1"><g transform="translate(1.126965, 22.340152)"><g><path d="M 18.460938 -8.265625 C 18.460938 -7.960938 18.464844 -7.496094 18.476562 -6.871094 C 18.484375 -6.246094 18.496094 -5.550781 18.515625 -4.785156 C 18.535156 -4.027344 18.558594 -3.296875 18.582031 -2.597656 C 18.613281 -1.890625 18.628906 -1.304688 18.640625 -0.839844 L 18.652344 -0.15625 C 18.652344 0.0898438 18.597656 0.308594 18.488281 0.492188 C 18.386719 0.664062 18.25 0.792969 18.078125 0.890625 C 17.914062 0.980469 17.734375 1.027344 17.542969 1.027344 L 11.851562 1.027344 C 11.484375 1.027344 11.191406 0.886719 10.96875 0.605469 C 10.800781 0.398438 10.714844 0.148438 10.714844 -0.136719 L 10.714844 -0.160156 C 10.734375 -0.90625 10.730469 -1.640625 10.703125 -2.355469 C 10.675781 -3.109375 10.660156 -3.910156 10.660156 -4.761719 C 10.660156 -4.65625 10.695312 -4.550781 10.761719 -4.445312 C 10.839844 -4.320312 10.9375 -4.234375 11.0625 -4.183594 C 11.144531 -4.148438 11.234375 -4.132812 11.332031 -4.128906 C 11.5 -4.128906 11.660156 -4.171875 11.808594 -4.261719 C 11.9375 -4.34375 12.035156 -4.445312 12.105469 -4.574219 C 12.140625 -4.636719 12.164062 -4.695312 12.171875 -4.753906 L 11.167969 -4.953125 L 12.179688 -4.777344 C 12.015625 -3.855469 11.878906 -3.027344 11.773438 -2.289062 C 11.660156 -1.527344 11.53125 -0.742188 11.382812 0.0742188 L 11.378906 0.105469 L 11.371094 0.140625 C 11.3125 0.359375 11.210938 0.546875 11.058594 0.699219 C 10.839844 0.917969 10.574219 1.027344 10.265625 1.027344 L 7.691406 1.027344 C 7.53125 1.027344 7.382812 0.996094 7.238281 0.929688 C 7.066406 0.855469 6.921875 0.738281 6.808594 0.589844 C 6.65625 0.386719 6.582031 0.15625 6.582031 -0.109375 L 7.609375 -0.109375 L 6.605469 0.109375 C 6.429688 -0.6875 6.316406 -1.511719 6.257812 -2.367188 C 6.207031 -3.121094 6.101562 -3.855469 5.949219 -4.574219 C 5.949219 -4.578125 5.945312 -4.582031 5.945312 -4.585938 C 5.949219 -4.582031 5.949219 -4.574219 5.953125 -4.566406 C 5.96875 -4.527344 5.996094 -4.484375 6.027344 -4.441406 C 6.164062 -4.269531 6.347656 -4.175781 6.578125 -4.160156 C 6.71875 -4.152344 6.855469 -4.183594 6.988281 -4.246094 C 7.132812 -4.316406 7.246094 -4.421875 7.332031 -4.554688 C 7.378906 -4.628906 7.410156 -4.703125 7.425781 -4.777344 C 7.429688 -4.792969 7.429688 -4.804688 7.429688 -4.816406 L 6.40625 -4.816406 L 7.429688 -4.84375 C 7.449219 -4.136719 7.425781 -3.324219 7.359375 -2.417969 C 7.296875 -1.566406 7.265625 -0.804688 7.265625 -0.136719 C 7.265625 0.0976562 7.210938 0.308594 7.101562 0.492188 C 7 0.664062 6.863281 0.792969 6.691406 0.890625 C 6.527344 0.980469 6.347656 1.027344 6.160156 1.027344 L 0.820312 1.027344 C 0.457031 1.027344 0.160156 0.886719 -0.0625 0.605469 C -0.230469 0.398438 -0.316406 0.148438 -0.316406 -0.136719 L -0.316406 -0.320312 L -0.3125 -0.34375 C -0.277344 -1.246094 -0.25 -2.277344 -0.234375 -3.4375 L -0.191406 -6.992188 L -0.179688 -10.378906 C -0.179688 -11.429688 -0.183594 -12.3125 -0.191406 -13.027344 L -0.207031 -14.359375 C -0.207031 -14.796875 -0.210938 -15.230469 -0.21875 -15.660156 C -0.226562 -16.105469 -0.234375 -16.5625 -0.234375 -17.023438 L -0.234375 -17.078125 C -0.234375 -17.363281 -0.148438 -17.613281 0.0195312 -17.824219 C 0.242188 -18.101562 0.539062 -18.242188 0.902344 -18.242188 L 8.375 -18.242188 C 8.566406 -18.242188 8.746094 -18.195312 8.910156 -18.101562 C 9.042969 -18.027344 9.152344 -17.925781 9.246094 -17.804688 C 9.339844 -17.675781 9.410156 -17.527344 9.453125 -17.355469 L 9.46875 -17.292969 L 9.476562 -17.230469 C 9.570312 -16.457031 9.636719 -15.675781 9.675781 -14.882812 C 9.707031 -14.175781 9.792969 -13.507812 9.925781 -12.890625 L 9.929688 -12.867188 L 9.933594 -12.839844 C 9.914062 -12.964844 9.863281 -13.078125 9.777344 -13.183594 C 9.6875 -13.292969 9.578125 -13.371094 9.453125 -13.417969 C 9.355469 -13.453125 9.242188 -13.453125 9.113281 -13.421875 L 9.359375 -12.425781 L 8.980469 -13.378906 C 9.007812 -13.390625 9.03125 -13.398438 9.046875 -13.40625 C 9.050781 -13.410156 9.054688 -13.410156 9.054688 -13.410156 C 9.050781 -13.410156 9.042969 -13.40625 9.039062 -13.402344 C 8.867188 -13.300781 8.742188 -13.164062 8.664062 -12.992188 C 8.644531 -12.949219 8.628906 -12.910156 8.621094 -12.875 C 8.628906 -12.894531 8.632812 -12.941406 8.636719 -13.019531 L 9.660156 -12.945312 L 8.636719 -12.945312 C 8.636719 -13.117188 8.65625 -13.46875 8.691406 -14.003906 C 8.730469 -14.527344 8.78125 -15.09375 8.847656 -15.699219 C 8.910156 -16.296875 8.972656 -16.8125 9.027344 -17.238281 L 9.035156 -17.296875 L 9.050781 -17.355469 C 9.105469 -17.574219 9.207031 -17.761719 9.359375 -17.914062 C 9.578125 -18.132812 9.84375 -18.242188 10.15625 -18.242188 L 17.488281 -18.242188 C 17.855469 -18.242188 18.148438 -18.101562 18.375 -17.824219 C 18.542969 -17.613281 18.625 -17.363281 18.625 -17.078125 C 18.625 -15.605469 18.597656 -14.128906 18.542969 -12.648438 C 18.488281 -11.191406 18.460938 -9.730469 18.460938 -8.265625 Z M 16.410156 -8.265625 C 16.410156 -9.757812 16.4375 -11.242188 16.492188 -12.722656 C 16.546875 -14.179688 16.574219 -15.632812 16.574219 -17.078125 C 16.574219 -16.886719 16.640625 -16.707031 16.769531 -16.539062 C 16.957031 -16.308594 17.199219 -16.191406 17.488281 -16.191406 L 10.15625 -16.191406 C 10.410156 -16.191406 10.628906 -16.28125 10.8125 -16.464844 C 10.925781 -16.578125 11.003906 -16.710938 11.039062 -16.859375 L 10.046875 -17.105469 L 11.0625 -16.972656 C 11.007812 -16.5625 10.949219 -16.0625 10.886719 -15.476562 C 10.824219 -14.898438 10.777344 -14.355469 10.742188 -13.859375 C 10.707031 -13.371094 10.6875 -13.066406 10.6875 -12.945312 L 10.6875 -12.875 C 10.671875 -12.695312 10.652344 -12.542969 10.625 -12.421875 C 10.546875 -12.066406 10.367188 -11.804688 10.09375 -11.640625 C 10 -11.585938 9.882812 -11.53125 9.742188 -11.472656 L 9.675781 -11.449219 L 9.609375 -11.429688 C 9.332031 -11.363281 9.046875 -11.382812 8.75 -11.488281 C 8.523438 -11.570312 8.332031 -11.707031 8.183594 -11.886719 C 8.039062 -12.066406 7.949219 -12.269531 7.910156 -12.503906 L 8.921875 -12.671875 L 7.917969 -12.457031 C 7.761719 -13.1875 7.664062 -13.964844 7.625 -14.785156 C 7.589844 -15.527344 7.527344 -16.257812 7.4375 -16.984375 L 8.457031 -17.105469 L 7.460938 -16.859375 C 7.484375 -16.761719 7.53125 -16.664062 7.601562 -16.574219 C 7.679688 -16.46875 7.777344 -16.382812 7.890625 -16.316406 C 8.042969 -16.234375 8.203125 -16.191406 8.375 -16.191406 L 0.902344 -16.191406 C 1.195312 -16.191406 1.433594 -16.308594 1.621094 -16.539062 C 1.753906 -16.707031 1.820312 -16.886719 1.820312 -17.078125 L 1.820312 -17.023438 C 1.820312 -16.574219 1.824219 -16.136719 1.832031 -15.703125 C 1.84375 -15.257812 1.847656 -14.816406 1.847656 -14.378906 L 1.859375 -13.054688 C 1.871094 -12.328125 1.875 -11.433594 1.875 -10.371094 L 1.859375 -6.96875 L 1.820312 -3.40625 C 1.800781 -2.230469 1.773438 -1.179688 1.738281 -0.261719 L 0.710938 -0.300781 L 1.738281 -0.300781 L 1.738281 -0.136719 C 1.738281 -0.332031 1.671875 -0.511719 1.539062 -0.675781 C 1.351562 -0.910156 1.113281 -1.027344 0.820312 -1.027344 L 6.160156 -1.027344 C 5.996094 -1.027344 5.839844 -0.984375 5.695312 -0.90625 C 5.546875 -0.824219 5.425781 -0.707031 5.339844 -0.5625 C 5.257812 -0.421875 5.214844 -0.28125 5.214844 -0.136719 C 5.214844 -0.855469 5.246094 -1.664062 5.3125 -2.566406 C 5.375 -3.40625 5.394531 -4.148438 5.378906 -4.789062 L 5.378906 -4.816406 C 5.378906 -5.140625 5.449219 -5.417969 5.59375 -5.648438 C 5.71875 -5.84375 5.878906 -5.992188 6.082031 -6.089844 C 6.273438 -6.183594 6.480469 -6.222656 6.699219 -6.210938 C 7.082031 -6.1875 7.394531 -6.023438 7.636719 -5.71875 C 7.789062 -5.527344 7.894531 -5.289062 7.957031 -5.003906 C 8.128906 -4.191406 8.246094 -3.359375 8.304688 -2.503906 C 8.355469 -1.753906 8.457031 -1.027344 8.613281 -0.328125 L 8.636719 -0.222656 L 8.636719 -0.109375 C 8.636719 -0.300781 8.574219 -0.480469 8.449219 -0.644531 C 8.351562 -0.777344 8.222656 -0.878906 8.070312 -0.945312 C 7.949219 -1 7.824219 -1.027344 7.691406 -1.027344 L 10.265625 -1.027344 C 10.007812 -1.027344 9.789062 -0.933594 9.605469 -0.753906 C 9.492188 -0.636719 9.414062 -0.503906 9.378906 -0.359375 L 10.375 -0.109375 L 9.363281 -0.292969 C 9.507812 -1.085938 9.632812 -1.847656 9.742188 -2.585938 C 9.851562 -3.34375 9.992188 -4.191406 10.15625 -5.132812 L 10.160156 -5.144531 L 10.160156 -5.15625 C 10.238281 -5.539062 10.425781 -5.820312 10.726562 -6.007812 C 11.070312 -6.222656 11.445312 -6.246094 11.84375 -6.082031 C 12.125 -5.964844 12.34375 -5.785156 12.496094 -5.539062 C 12.640625 -5.308594 12.714844 -5.050781 12.714844 -4.761719 C 12.714844 -3.9375 12.726562 -3.160156 12.753906 -2.433594 C 12.78125 -1.671875 12.785156 -0.898438 12.769531 -0.113281 L 11.742188 -0.136719 L 12.769531 -0.136719 C 12.769531 -0.332031 12.703125 -0.511719 12.570312 -0.675781 C 12.382812 -0.910156 12.144531 -1.027344 11.851562 -1.027344 L 17.542969 -1.027344 C 17.382812 -1.027344 17.226562 -0.984375 17.082031 -0.90625 C 16.933594 -0.824219 16.8125 -0.707031 16.726562 -0.5625 C 16.640625 -0.421875 16.601562 -0.273438 16.601562 -0.117188 L 16.585938 -0.800781 C 16.578125 -1.25 16.558594 -1.824219 16.53125 -2.519531 C 16.503906 -3.226562 16.480469 -3.964844 16.464844 -4.738281 C 16.445312 -5.507812 16.433594 -6.207031 16.421875 -6.839844 C 16.414062 -7.476562 16.410156 -7.949219 16.410156 -8.265625 Z M 16.410156 -8.265625 "/></g></g></g></g><g fill="#000000" fill-opacity="1"><g transform="translate(1.126965, 22.340152)"><g><path d="M 17.4375 -8.265625 C 17.4375 -7.953125 17.441406 -7.476562 17.453125 -6.84375 C 17.460938 -6.21875 17.472656 -5.519531 17.484375 -4.75 C 17.503906 -3.988281 17.53125 -3.253906 17.5625 -2.546875 C 17.59375 -1.847656 17.609375 -1.269531 17.609375 -0.8125 C 17.617188 -0.363281 17.625 -0.140625 17.625 -0.140625 C 17.625 -0.046875 17.597656 0 17.546875 0 L 11.859375 0 C 11.785156 0 11.75 -0.046875 11.75 -0.140625 C 11.757812 -0.898438 11.75 -1.648438 11.71875 -2.390625 C 11.695312 -3.128906 11.6875 -3.921875 11.6875 -4.765625 C 11.6875 -4.941406 11.609375 -5.0625 11.453125 -5.125 C 11.296875 -5.195312 11.203125 -5.140625 11.171875 -4.953125 C 11.003906 -4.023438 10.863281 -3.1875 10.75 -2.4375 C 10.644531 -1.6875 10.519531 -0.910156 10.375 -0.109375 C 10.351562 -0.0351562 10.316406 0 10.265625 0 L 7.6875 0 C 7.632812 0 7.609375 -0.0351562 7.609375 -0.109375 C 7.441406 -0.859375 7.332031 -1.632812 7.28125 -2.4375 C 7.226562 -3.238281 7.117188 -4.023438 6.953125 -4.796875 C 6.898438 -5.046875 6.796875 -5.175781 6.640625 -5.1875 C 6.484375 -5.195312 6.40625 -5.070312 6.40625 -4.8125 C 6.425781 -4.144531 6.398438 -3.367188 6.328125 -2.484375 C 6.265625 -1.609375 6.234375 -0.828125 6.234375 -0.140625 C 6.234375 -0.046875 6.207031 0 6.15625 0 L 0.828125 0 C 0.753906 0 0.71875 -0.046875 0.71875 -0.140625 L 0.71875 -0.296875 C 0.75 -1.210938 0.773438 -2.253906 0.796875 -3.421875 C 0.816406 -4.585938 0.828125 -5.769531 0.828125 -6.96875 C 0.835938 -8.175781 0.84375 -9.3125 0.84375 -10.375 C 0.84375 -11.4375 0.835938 -12.328125 0.828125 -13.046875 C 0.828125 -13.765625 0.828125 -14.207031 0.828125 -14.375 C 0.828125 -14.8125 0.820312 -15.25 0.8125 -15.6875 C 0.800781 -16.125 0.796875 -16.570312 0.796875 -17.03125 C 0.796875 -17.039062 0.796875 -17.054688 0.796875 -17.078125 C 0.796875 -17.171875 0.832031 -17.21875 0.90625 -17.21875 L 8.375 -17.21875 C 8.414062 -17.21875 8.441406 -17.179688 8.453125 -17.109375 C 8.546875 -16.359375 8.609375 -15.597656 8.640625 -14.828125 C 8.679688 -14.066406 8.773438 -13.347656 8.921875 -12.671875 C 8.941406 -12.566406 9 -12.492188 9.09375 -12.453125 C 9.195312 -12.421875 9.285156 -12.410156 9.359375 -12.421875 C 9.453125 -12.460938 9.519531 -12.492188 9.5625 -12.515625 C 9.613281 -12.546875 9.644531 -12.691406 9.65625 -12.953125 C 9.65625 -13.097656 9.671875 -13.425781 9.703125 -13.9375 C 9.742188 -14.445312 9.796875 -15 9.859375 -15.59375 C 9.929688 -16.1875 9.992188 -16.691406 10.046875 -17.109375 C 10.066406 -17.179688 10.101562 -17.21875 10.15625 -17.21875 L 17.5 -17.21875 C 17.570312 -17.21875 17.609375 -17.171875 17.609375 -17.078125 C 17.609375 -15.617188 17.578125 -14.15625 17.515625 -12.6875 C 17.460938 -11.21875 17.4375 -9.742188 17.4375 -8.265625 Z M 17.4375 -8.265625 "/></g></g></g></g></g><g transform="matrix(1, 0, 0, 1, 15, 3)"><g clip-path="url(#c0fdb350a5)"><g clip-path="url(#26a9f79d9e)"><g fill="#ffffff" fill-opacity="1"><g transform="translate(0.764359, 22.340152)"><g><path d="M 16.367188 -2.222656 C 16.421875 -1.902344 16.476562 -1.582031 16.539062 -1.261719 C 16.597656 -0.960938 16.671875 -0.660156 16.753906 -0.355469 L 15.765625 -0.0820312 L 16.683594 -0.542969 C 16.832031 -0.25 16.84375 0.046875 16.726562 0.34375 C 16.648438 0.539062 16.523438 0.695312 16.347656 0.816406 C 16.238281 0.894531 16.117188 0.949219 15.988281 0.980469 L 15.808594 1.027344 L 9.550781 1.027344 C 9.234375 1.027344 8.960938 0.914062 8.738281 0.691406 C 8.566406 0.523438 8.457031 0.3125 8.410156 0.0625 L 9.414062 -0.136719 L 8.414062 0.09375 C 8.246094 -0.640625 8.113281 -1.300781 8.019531 -1.890625 C 7.933594 -2.414062 7.789062 -3.042969 7.578125 -3.769531 L 7.5625 -3.824219 L 7.554688 -3.882812 C 7.546875 -3.9375 7.527344 -4.011719 7.496094 -4.097656 C 7.546875 -3.953125 7.636719 -3.835938 7.769531 -3.738281 C 7.898438 -3.644531 8.039062 -3.597656 8.183594 -3.597656 L 8.121094 -3.597656 L 8.054688 -3.605469 C 8.1875 -3.589844 8.328125 -3.617188 8.472656 -3.691406 C 8.605469 -3.757812 8.714844 -3.851562 8.800781 -3.972656 C 8.875 -4.078125 8.925781 -4.195312 8.949219 -4.320312 C 8.933594 -4.242188 8.917969 -4.132812 8.902344 -3.992188 L 8.894531 -3.9375 C 8.875 -3.816406 8.820312 -3.519531 8.726562 -3.046875 C 8.636719 -2.585938 8.542969 -2.074219 8.441406 -1.507812 C 8.34375 -0.945312 8.269531 -0.464844 8.214844 -0.0585938 L 7.199219 -0.191406 L 8.226562 -0.191406 C 8.226562 0.0898438 8.148438 0.339844 8 0.546875 C 7.882812 0.710938 7.734375 0.835938 7.554688 0.917969 C 7.402344 0.992188 7.234375 1.027344 7.0625 1.027344 L 0.710938 1.027344 C 0.53125 1.027344 0.363281 0.992188 0.207031 0.921875 C 0.0078125 0.828125 -0.15625 0.691406 -0.277344 0.507812 C -0.445312 0.257812 -0.507812 -0.03125 -0.472656 -0.359375 L 0.546875 -0.246094 L -0.480469 -0.246094 C -0.480469 -0.355469 -0.433594 -0.617188 -0.347656 -1.023438 C -0.273438 -1.355469 -0.199219 -1.726562 -0.117188 -2.140625 C -0.03125 -2.589844 0.0546875 -2.953125 0.136719 -3.238281 L 1.121094 -2.957031 L 0.128906 -3.210938 L 0.457031 -4.484375 C 0.5625 -4.902344 0.660156 -5.3125 0.75 -5.71875 L 0.761719 -5.773438 L 0.777344 -5.824219 C 0.824219 -5.964844 0.882812 -6.167969 0.949219 -6.433594 C 1.023438 -6.742188 1.109375 -7.054688 1.203125 -7.378906 C 1.292969 -7.679688 1.363281 -7.929688 1.414062 -8.128906 C 1.449219 -8.25 1.476562 -8.351562 1.5 -8.425781 C 1.566406 -8.640625 1.664062 -8.8125 1.792969 -8.9375 L 2.519531 -8.210938 L 1.566406 -8.59375 C 1.570312 -8.601562 1.570312 -8.609375 1.570312 -8.613281 C 1.570312 -8.609375 1.570312 -8.609375 1.570312 -8.605469 C 1.550781 -8.742188 1.519531 -8.875 1.480469 -9.011719 L 2.464844 -9.304688 L 1.515625 -8.914062 C 1.378906 -9.246094 1.257812 -9.5625 1.152344 -9.875 C 1.042969 -10.1875 0.941406 -10.515625 0.84375 -10.863281 C 0.660156 -11.515625 0.480469 -12.207031 0.3125 -12.933594 C 0.164062 -13.582031 0.0273438 -14.226562 -0.101562 -14.863281 C -0.234375 -15.511719 -0.347656 -16.167969 -0.441406 -16.824219 L -0.445312 -16.839844 L -0.445312 -16.855469 C -0.480469 -17.1875 -0.417969 -17.476562 -0.25 -17.722656 C -0.128906 -17.90625 0.0351562 -18.046875 0.234375 -18.136719 C 0.390625 -18.207031 0.558594 -18.242188 0.738281 -18.242188 L 6.898438 -18.242188 C 7.21875 -18.242188 7.488281 -18.132812 7.710938 -17.90625 C 7.882812 -17.738281 7.992188 -17.53125 8.039062 -17.28125 L 7.035156 -17.078125 L 8.027344 -17.339844 C 8.121094 -16.976562 8.21875 -16.566406 8.3125 -16.113281 L 8.585938 -14.828125 L 8.816406 -13.765625 C 8.898438 -13.402344 8.9375 -13.15625 8.9375 -13.027344 L 7.910156 -13.027344 L 8.863281 -13.410156 C 8.914062 -13.28125 8.957031 -13.148438 8.996094 -13.011719 C 8.953125 -13.164062 8.867188 -13.300781 8.734375 -13.410156 C 8.570312 -13.546875 8.390625 -13.617188 8.183594 -13.617188 C 7.941406 -13.617188 7.734375 -13.523438 7.5625 -13.34375 C 7.445312 -13.214844 7.378906 -13.078125 7.359375 -12.929688 C 7.375 -13.070312 7.394531 -13.207031 7.414062 -13.335938 L 7.417969 -13.367188 L 7.421875 -13.394531 C 7.441406 -13.480469 7.488281 -13.746094 7.570312 -14.195312 L 7.84375 -15.738281 C 7.945312 -16.328125 8.042969 -16.835938 8.140625 -17.269531 L 9.140625 -17.050781 L 8.128906 -17.21875 C 8.167969 -17.457031 8.257812 -17.664062 8.402344 -17.832031 C 8.628906 -18.105469 8.921875 -18.242188 9.277344 -18.242188 L 15.546875 -18.242188 C 15.953125 -18.242188 16.273438 -18.085938 16.503906 -17.777344 C 16.699219 -17.519531 16.773438 -17.21875 16.730469 -16.871094 L 15.710938 -16.996094 L 16.734375 -16.910156 C 16.675781 -16.203125 16.5625 -15.503906 16.394531 -14.8125 C 16.234375 -14.15625 16.0625 -13.511719 15.875 -12.875 L 14.890625 -13.164062 L 15.886719 -12.917969 C 15.84375 -12.753906 15.769531 -12.484375 15.652344 -12.105469 L 15.296875 -10.925781 C 15.167969 -10.5 15.054688 -10.128906 14.953125 -9.804688 C 14.90625 -9.660156 14.871094 -9.546875 14.851562 -9.46875 C 14.84375 -9.441406 14.839844 -9.421875 14.835938 -9.410156 C 14.84375 -9.449219 14.847656 -9.496094 14.847656 -9.550781 L 14.847656 -9.410156 L 14.808594 -9.269531 C 14.78125 -9.179688 14.78125 -9.089844 14.796875 -9 C 14.84375 -8.78125 14.898438 -8.582031 14.960938 -8.398438 L 14.972656 -8.363281 L 15.253906 -7.246094 C 15.351562 -6.875 15.4375 -6.496094 15.511719 -6.113281 L 14.507812 -5.910156 L 15.5 -6.167969 C 15.667969 -5.519531 15.824219 -4.871094 15.972656 -4.226562 C 16.121094 -3.566406 16.253906 -2.898438 16.367188 -2.222656 Z M 14.34375 -1.882812 C 14.238281 -2.519531 14.113281 -3.148438 13.972656 -3.765625 C 13.828125 -4.398438 13.675781 -5.027344 13.511719 -5.65625 L 13.503906 -5.683594 L 13.5 -5.710938 C 13.429688 -6.058594 13.351562 -6.402344 13.265625 -6.742188 L 12.992188 -7.824219 L 13.988281 -8.074219 L 13.011719 -7.75 C 12.925781 -8.003906 12.855469 -8.277344 12.792969 -8.570312 C 12.699219 -8.992188 12.714844 -9.414062 12.835938 -9.835938 L 13.820312 -9.550781 L 12.796875 -9.550781 C 12.796875 -9.710938 12.863281 -10 12.992188 -10.421875 C 13.09375 -10.738281 13.207031 -11.101562 13.332031 -11.519531 L 13.6875 -12.695312 C 13.792969 -13.042969 13.859375 -13.285156 13.894531 -13.414062 L 13.898438 -13.433594 L 13.90625 -13.453125 C 14.082031 -14.058594 14.246094 -14.671875 14.398438 -15.296875 C 14.542969 -15.882812 14.636719 -16.480469 14.6875 -17.082031 L 14.691406 -17.105469 L 14.691406 -17.125 C 14.667969 -16.921875 14.722656 -16.730469 14.863281 -16.546875 C 14.964844 -16.410156 15.09375 -16.3125 15.246094 -16.25 C 15.347656 -16.210938 15.445312 -16.191406 15.546875 -16.191406 L 9.277344 -16.191406 C 9.5625 -16.191406 9.796875 -16.300781 9.976562 -16.519531 C 10.074219 -16.632812 10.132812 -16.753906 10.15625 -16.882812 L 10.148438 -16.859375 L 10.144531 -16.832031 C 10.054688 -16.429688 9.964844 -15.945312 9.863281 -15.382812 L 9.589844 -13.832031 C 9.507812 -13.371094 9.457031 -13.089844 9.4375 -12.992188 L 8.429688 -13.191406 L 9.445312 -13.046875 C 9.429688 -12.921875 9.410156 -12.792969 9.394531 -12.660156 C 9.355469 -12.375 9.246094 -12.136719 9.0625 -11.941406 C 8.828125 -11.691406 8.535156 -11.5625 8.183594 -11.5625 C 7.886719 -11.5625 7.628906 -11.65625 7.40625 -11.84375 C 7.214844 -12.007812 7.085938 -12.214844 7.015625 -12.472656 C 7 -12.535156 6.980469 -12.59375 6.957031 -12.648438 L 6.882812 -12.832031 L 6.882812 -13.027344 C 6.882812 -12.996094 6.886719 -12.96875 6.886719 -12.949219 C 6.886719 -12.964844 6.882812 -12.984375 6.875 -13.011719 C 6.863281 -13.089844 6.839844 -13.195312 6.8125 -13.328125 L 6.578125 -14.402344 L 6.304688 -15.691406 C 6.214844 -16.113281 6.128906 -16.488281 6.042969 -16.816406 L 6.027344 -16.878906 C 6.058594 -16.71875 6.136719 -16.578125 6.261719 -16.457031 C 6.4375 -16.277344 6.652344 -16.191406 6.898438 -16.191406 L 0.738281 -16.191406 C 0.855469 -16.191406 0.96875 -16.214844 1.078125 -16.265625 C 1.234375 -16.335938 1.359375 -16.441406 1.457031 -16.585938 C 1.566406 -16.75 1.613281 -16.917969 1.59375 -17.082031 L 0.574219 -16.96875 L 1.589844 -17.113281 C 1.679688 -16.496094 1.785156 -15.882812 1.910156 -15.273438 C 2.035156 -14.648438 2.171875 -14.023438 2.3125 -13.394531 C 2.472656 -12.703125 2.644531 -12.042969 2.824219 -11.414062 C 2.910156 -11.105469 3 -10.816406 3.09375 -10.542969 C 3.1875 -10.269531 3.292969 -9.988281 3.414062 -9.695312 L 3.433594 -9.648438 L 3.445312 -9.601562 C 3.515625 -9.371094 3.566406 -9.140625 3.601562 -8.910156 C 3.65625 -8.546875 3.613281 -8.183594 3.472656 -7.828125 L 3.394531 -7.632812 L 3.242188 -7.484375 C 3.335938 -7.578125 3.402344 -7.679688 3.449219 -7.785156 C 3.453125 -7.796875 3.457031 -7.800781 3.457031 -7.808594 C 3.457031 -7.804688 3.457031 -7.804688 3.453125 -7.800781 C 3.441406 -7.761719 3.425781 -7.695312 3.402344 -7.609375 C 3.34375 -7.390625 3.269531 -7.121094 3.175781 -6.800781 C 3.085938 -6.503906 3.007812 -6.214844 2.9375 -5.9375 C 2.859375 -5.621094 2.789062 -5.367188 2.726562 -5.175781 L 1.75 -5.5 L 2.753906 -5.285156 C 2.660156 -4.851562 2.558594 -4.414062 2.445312 -3.972656 L 2.113281 -2.6875 L 2.109375 -2.675781 C 2.042969 -2.445312 1.972656 -2.136719 1.898438 -1.746094 C 1.8125 -1.320312 1.734375 -0.933594 1.660156 -0.589844 C 1.625 -0.429688 1.597656 -0.304688 1.582031 -0.21875 C 1.574219 -0.179688 1.570312 -0.152344 1.566406 -0.136719 C 1.570312 -0.164062 1.574219 -0.199219 1.574219 -0.246094 L 1.574219 -0.191406 L 1.566406 -0.132812 C 1.585938 -0.296875 1.539062 -0.464844 1.429688 -0.632812 C 1.332031 -0.773438 1.207031 -0.882812 1.050781 -0.953125 C 0.941406 -1 0.828125 -1.027344 0.710938 -1.027344 L 7.0625 -1.027344 C 6.933594 -1.027344 6.808594 -1 6.6875 -0.941406 C 6.542969 -0.875 6.421875 -0.773438 6.328125 -0.644531 C 6.222656 -0.496094 6.171875 -0.347656 6.171875 -0.191406 L 6.171875 -0.257812 L 6.179688 -0.324219 C 6.238281 -0.757812 6.316406 -1.269531 6.421875 -1.859375 C 6.523438 -2.441406 6.617188 -2.96875 6.710938 -3.441406 C 6.800781 -3.898438 6.855469 -4.175781 6.871094 -4.273438 L 7.882812 -4.105469 L 6.863281 -4.21875 C 6.882812 -4.40625 6.90625 -4.5625 6.925781 -4.6875 C 6.996094 -5.074219 7.207031 -5.351562 7.554688 -5.527344 C 7.78125 -5.640625 8.03125 -5.679688 8.3125 -5.644531 L 8.183594 -4.625 L 8.183594 -5.652344 C 8.476562 -5.652344 8.734375 -5.570312 8.960938 -5.410156 C 9.191406 -5.246094 9.351562 -5.023438 9.445312 -4.746094 C 9.507812 -4.558594 9.550781 -4.382812 9.578125 -4.21875 L 8.566406 -4.050781 L 9.554688 -4.332031 C 9.785156 -3.527344 9.949219 -2.820312 10.046875 -2.214844 C 10.132812 -1.671875 10.257812 -1.058594 10.414062 -0.367188 L 10.417969 -0.351562 L 10.421875 -0.339844 C 10.390625 -0.496094 10.3125 -0.636719 10.1875 -0.761719 C 10.011719 -0.9375 9.800781 -1.027344 9.550781 -1.027344 L 15.683594 -1.027344 L 15.683594 0 L 15.433594 -0.996094 L 15.488281 -1.007812 C 15.375 -0.980469 15.269531 -0.933594 15.171875 -0.863281 C 15.011719 -0.75 14.894531 -0.601562 14.820312 -0.417969 C 14.710938 -0.144531 14.71875 0.121094 14.847656 0.375 L 14.804688 0.289062 L 14.777344 0.191406 C 14.679688 -0.160156 14.59375 -0.515625 14.523438 -0.871094 C 14.460938 -1.210938 14.398438 -1.546875 14.34375 -1.882812 Z M 14.34375 -1.882812 "/></g></g></g></g><g fill="#000000" fill-opacity="1"><g transform="translate(0.764359, 22.340152)"><g><path d="M 15.359375 -2.046875 C 15.410156 -1.722656 15.46875 -1.394531 15.53125 -1.0625 C 15.59375 -0.738281 15.671875 -0.410156 15.765625 -0.078125 C 15.785156 -0.046875 15.773438 -0.0234375 15.734375 -0.015625 C 15.703125 -0.00390625 15.6875 0 15.6875 0 L 9.546875 0 C 9.472656 0 9.429688 -0.046875 9.421875 -0.140625 C 9.253906 -0.847656 9.125 -1.484375 9.03125 -2.046875 C 8.9375 -2.617188 8.78125 -3.285156 8.5625 -4.046875 C 8.550781 -4.160156 8.519531 -4.285156 8.46875 -4.421875 C 8.425781 -4.554688 8.332031 -4.625 8.1875 -4.625 C 8.039062 -4.644531 7.957031 -4.601562 7.9375 -4.5 C 7.914062 -4.40625 7.898438 -4.273438 7.890625 -4.109375 C 7.867188 -3.992188 7.8125 -3.703125 7.71875 -3.234375 C 7.625 -2.773438 7.523438 -2.257812 7.421875 -1.6875 C 7.328125 -1.113281 7.253906 -0.613281 7.203125 -0.1875 C 7.203125 -0.0625 7.15625 0 7.0625 0 L 0.71875 0 C 0.582031 0 0.523438 -0.0820312 0.546875 -0.25 C 0.546875 -0.28125 0.582031 -0.460938 0.65625 -0.796875 C 0.726562 -1.140625 0.804688 -1.519531 0.890625 -1.9375 C 0.972656 -2.363281 1.050781 -2.703125 1.125 -2.953125 C 1.226562 -3.378906 1.332031 -3.804688 1.4375 -4.234375 C 1.550781 -4.660156 1.65625 -5.082031 1.75 -5.5 C 1.800781 -5.664062 1.863281 -5.894531 1.9375 -6.1875 C 2.007812 -6.476562 2.09375 -6.78125 2.1875 -7.09375 C 2.28125 -7.40625 2.351562 -7.664062 2.40625 -7.875 C 2.457031 -8.082031 2.492188 -8.195312 2.515625 -8.21875 C 2.585938 -8.394531 2.609375 -8.570312 2.578125 -8.75 C 2.554688 -8.9375 2.519531 -9.125 2.46875 -9.3125 C 2.332031 -9.613281 2.210938 -9.910156 2.109375 -10.203125 C 2.015625 -10.503906 1.921875 -10.816406 1.828125 -11.140625 C 1.648438 -11.773438 1.476562 -12.453125 1.3125 -13.171875 C 1.164062 -13.804688 1.03125 -14.4375 0.90625 -15.0625 C 0.78125 -15.695312 0.671875 -16.332031 0.578125 -16.96875 C 0.554688 -17.132812 0.609375 -17.21875 0.734375 -17.21875 L 6.90625 -17.21875 C 6.976562 -17.21875 7.019531 -17.171875 7.03125 -17.078125 C 7.125 -16.734375 7.21875 -16.34375 7.3125 -15.90625 C 7.40625 -15.46875 7.492188 -15.035156 7.578125 -14.609375 C 7.671875 -14.191406 7.75 -13.835938 7.8125 -13.546875 C 7.875 -13.253906 7.90625 -13.082031 7.90625 -13.03125 C 7.945312 -12.9375 7.976562 -12.835938 8 -12.734375 C 8.03125 -12.640625 8.09375 -12.59375 8.1875 -12.59375 C 8.289062 -12.59375 8.351562 -12.660156 8.375 -12.796875 C 8.394531 -12.929688 8.414062 -13.0625 8.4375 -13.1875 C 8.445312 -13.28125 8.492188 -13.554688 8.578125 -14.015625 C 8.660156 -14.472656 8.75 -14.988281 8.84375 -15.5625 C 8.945312 -16.132812 9.046875 -16.628906 9.140625 -17.046875 C 9.160156 -17.160156 9.207031 -17.21875 9.28125 -17.21875 L 15.546875 -17.21875 C 15.671875 -17.21875 15.726562 -17.144531 15.71875 -17 C 15.65625 -16.34375 15.546875 -15.691406 15.390625 -15.046875 C 15.242188 -14.410156 15.078125 -13.785156 14.890625 -13.171875 C 14.859375 -13.023438 14.785156 -12.769531 14.671875 -12.40625 C 14.566406 -12.039062 14.445312 -11.644531 14.3125 -11.21875 C 14.1875 -10.800781 14.070312 -10.429688 13.96875 -10.109375 C 13.875 -9.796875 13.828125 -9.609375 13.828125 -9.546875 C 13.753906 -9.296875 13.742188 -9.039062 13.796875 -8.78125 C 13.847656 -8.53125 13.910156 -8.296875 13.984375 -8.078125 C 14.078125 -7.710938 14.171875 -7.347656 14.265625 -6.984375 C 14.359375 -6.628906 14.441406 -6.269531 14.515625 -5.90625 C 14.671875 -5.269531 14.820312 -4.628906 14.96875 -3.984375 C 15.113281 -3.347656 15.242188 -2.703125 15.359375 -2.046875 Z M 15.359375 -2.046875 "/></g></g></g></g></g><g clip-path="url(#e55a365384)"><g transform="matrix(1, 0, 0, 1, 5, 25)"><g clip-path="url(#e84f6f14e3)"><g clip-path="url(#339858b5a8)"><path fill="#ffffff" d="M 0.167969 0.648438 L 21.640625 0.648438 L 21.640625 4.1875 L 0.167969 4.1875 Z M 0.167969 0.648438 " fill-opacity="1" fill-rule="nonzero"/></g></g></g></g><g transform="matrix(1, 0, 0, 1, 12, 25)"><g clip-path="url(#1a8ae97b95)"><g fill="#ffffff" fill-opacity="1"><g transform="translate(1.452426, 4.365549)"><g><path d="M 1.855469 -2.246094 L 1.855469 -1.820312 L 1.152344 -1.820312 L 1.152344 -1.875 L 1.207031 -1.875 L 1.207031 0.0546875 L 0.65625 0.0546875 L 0.65625 -1.875 L 0.710938 -1.875 L 0.710938 -1.820312 L 0.0078125 -1.820312 L 0.0078125 -2.304688 L 1.855469 -2.304688 Z M 1.746094 -2.246094 L 1.800781 -2.246094 L 1.800781 -2.191406 L 0.0625 -2.191406 L 0.0625 -2.246094 L 0.117188 -2.246094 L 0.117188 -1.875 L 0.0625 -1.875 L 0.0625 -1.929688 L 0.765625 -1.929688 L 0.765625 0 L 0.710938 0 L 0.710938 -0.0546875 L 1.152344 -0.0546875 L 1.152344 0 L 1.097656 0 L 1.097656 -1.929688 L 1.800781 -1.929688 L 1.800781 -1.875 L 1.746094 -1.875 Z M 1.746094 -2.246094 "/></g></g></g><g fill="#ffffff" fill-opacity="1"><g transform="translate(4.874661, 4.365549)"><g><path d="M 0.238281 -2.304688 L 0.792969 -2.304688 L 0.792969 0.0546875 L 0.238281 0.0546875 Z M 0.347656 -2.191406 L 0.347656 -0.0546875 L 0.679688 -0.0546875 L 0.679688 -2.191406 Z M 0.347656 -2.191406 "/></g></g></g><g fill="#000000" fill-opacity="1"><g transform="translate(1.452426, 4.365549)"><g><path d="M 1.8125 -2.25 L 1.8125 -1.875 L 1.15625 -1.875 L 1.15625 0 L 0.71875 0 L 0.71875 -1.875 L 0.0625 -1.875 L 0.0625 -2.25 Z M 1.8125 -2.25 "/></g></g></g><g fill="#000000" fill-opacity="1"><g transform="translate(4.874661, 4.365549)"><g><path d="M 0.734375 0 L 0.296875 0 L 0.296875 -2.25 L 0.734375 -2.25 Z M 0.734375 0 "/></g></g></g></g></g></svg>