<svg xmlns="http://www.w3.org/2000/svg" xmlns:xlink="http://www.w3.org/1999/xlink" width="160" zoomAndPan="magnify" viewBox="0 0 120 37.5" height="50" preserveAspectRatio="xMidYMid meet" version="1.0"><defs><g/><clipPath id="4616323ab8"><path d="M 0.789062 0 L 119.203125 0 L 119.203125 35.675781 L 0.789062 35.675781 Z M 0.789062 0 " clip-rule="nonzero"/></clipPath><clipPath id="93e2298f42"><path d="M 0.632812 4 L 20.527344 4 L 20.527344 27 L 0.632812 27 Z M 0.632812 4 " clip-rule="nonzero"/></clipPath><clipPath id="7990c6e025"><rect x="0" width="21" y="0" height="32"/></clipPath><clipPath id="5e3c8c3093"><path d="M 0.472656 4 L 12.316406 4 L 12.316406 27 L 0.472656 27 Z M 0.472656 4 " clip-rule="nonzero"/></clipPath><clipPath id="eb353af6e5"><rect x="0" width="13" y="0" height="32"/></clipPath><clipPath id="370460ecdf"><path d="M 0.65625 4 L 20.316406 4 L 20.316406 27 L 0.65625 27 Z M 0.65625 4 " clip-rule="nonzero"/></clipPath><clipPath id="23369274cf"><rect x="0" width="21" y="0" height="32"/></clipPath><clipPath id="80c5900add"><path d="M 1 4 L 20.5 4 L 20.5 26 L 1 26 Z M 1 4 " clip-rule="nonzero"/></clipPath><clipPath id="43a09a8a8c"><rect x="0" width="21" y="0" height="31"/></clipPath><clipPath id="718becc0ec"><path d="M 0.5 4 L 20.394531 4 L 20.394531 26 L 0.5 26 Z M 0.5 4 " clip-rule="nonzero"/></clipPath><clipPath id="cc4b6c3755"><rect x="0" width="21" y="0" height="31"/></clipPath><clipPath id="40fe6583df"><path d="M 0.34375 4 L 20.949219 4 L 20.949219 26 L 0.34375 26 Z M 0.34375 4 " clip-rule="nonzero"/></clipPath><clipPath id="abd511be0b"><rect x="0" width="21" y="0" height="31"/></clipPath><clipPath id="cf5ee4fd0b"><path d="M 0.183594 4 L 21.738281 4 L 21.738281 26 L 0.183594 26 Z M 0.183594 4 " clip-rule="nonzero"/></clipPath><clipPath id="b73f02bfa0"><rect x="0" width="22" y="0" height="31"/></clipPath><clipPath id="c935d6b86f"><path d="M 0.394531 2 L 3 2 L 3 5 L 0.394531 5 Z M 0.394531 2 " clip-rule="nonzero"/></clipPath><clipPath id="1ef0dcf67f"><path d="M 0.394531 2 L 3 2 L 3 5 L 0.394531 5 Z M 0.394531 2 " clip-rule="nonzero"/></clipPath><clipPath id="0d481af074"><rect x="0" width="8" y="0" height="6"/></clipPath></defs><g clip-path="url(#4616323ab8)"><path stroke-linecap="butt" transform="matrix(0.740132, 0, 0, 0.740132, -0.339111, -2.81214)" fill="none" stroke-linejoin="miter" d="M -0.000990101 -0.00048642 L 161.51484 -0.00048642 L 161.51484 52.217846 L -0.000990101 52.217846 Z M -0.000990101 -0.00048642 " stroke="#ffffff" stroke-width="8" stroke-opacity="1" stroke-miterlimit="4"/></g><g transform="matrix(1, 0, 0, 1, 93, 2)"><g clip-path="url(#7990c6e025)"><g clip-path="url(#93e2298f42)"><g fill="#ffffff" fill-opacity="1"><g transform="translate(1.492983, 25.036864)"><g><path d="M 18.328125 -19.808594 C 18.433594 -19.703125 18.527344 -19.574219 18.601562 -19.421875 L 18.695312 -19.238281 L 18.714844 -19.03125 C 18.761719 -18.574219 18.777344 -18.1875 18.765625 -17.863281 C 18.753906 -17.582031 18.738281 -17.269531 18.71875 -16.929688 C 18.699219 -16.621094 18.691406 -16.144531 18.691406 -15.503906 C 18.691406 -15.292969 18.707031 -14.972656 18.746094 -14.542969 L 18.839844 -13.433594 L 18.839844 -13.386719 C 18.839844 -12.984375 18.707031 -12.648438 18.441406 -12.382812 C 18.175781 -12.113281 17.839844 -11.980469 17.4375 -11.980469 L 17.402344 -11.980469 C 16.707031 -12.003906 15.910156 -12.039062 15.015625 -12.089844 L 12.523438 -12.226562 C 11.769531 -12.265625 11.230469 -12.285156 10.910156 -12.285156 L 10.910156 -13.417969 L 10.9375 -12.285156 C 10.25 -12.265625 9.660156 -12.210938 9.164062 -12.121094 C 9.097656 -12.109375 9.050781 -12.097656 9.015625 -12.082031 C 9.023438 -12.085938 9.039062 -12.097656 9.0625 -12.117188 C 9.195312 -12.226562 9.261719 -12.367188 9.261719 -12.539062 C 9.261719 -12.507812 9.261719 -12.488281 9.265625 -12.472656 C 9.261719 -12.492188 9.253906 -12.519531 9.238281 -12.550781 C 9.164062 -12.714844 9.035156 -12.835938 8.847656 -12.90625 C 8.976562 -12.855469 9.074219 -12.828125 9.144531 -12.820312 L 9.179688 -12.816406 L 9.210938 -12.808594 C 9.65625 -12.726562 10.007812 -12.695312 10.269531 -12.71875 C 10.6875 -12.753906 11.246094 -12.75 11.945312 -12.703125 C 12.667969 -12.660156 13.378906 -12.5625 14.082031 -12.410156 C 14.910156 -12.226562 15.644531 -11.867188 16.292969 -11.324219 C 16.617188 -11.042969 16.964844 -10.699219 17.328125 -10.289062 C 17.765625 -9.796875 18.125 -9.125 18.40625 -8.269531 C 18.675781 -7.449219 18.8125 -6.335938 18.8125 -4.925781 C 18.8125 -4.554688 18.734375 -4.050781 18.582031 -3.421875 C 18.421875 -2.75 18.113281 -2.066406 17.660156 -1.375 L 17.652344 -1.359375 L 17.640625 -1.347656 C 17.394531 -0.992188 17.023438 -0.621094 16.527344 -0.238281 C 16.019531 0.15625 15.449219 0.453125 14.820312 0.65625 C 14.046875 0.890625 13.28125 1.019531 12.515625 1.042969 C 11.839844 1.0625 11.34375 1.074219 11.03125 1.074219 C 10.957031 1.074219 10.667969 1.078125 10.160156 1.085938 C 9.640625 1.097656 8.996094 1.101562 8.234375 1.101562 C 7.484375 1.101562 6.699219 1.109375 5.875 1.117188 C 5.046875 1.128906 4.261719 1.132812 3.519531 1.132812 L 1.058594 1.132812 C 0.679688 1.132812 0.359375 1.019531 0.101562 0.785156 C -0.199219 0.519531 -0.347656 0.179688 -0.347656 -0.242188 C -0.347656 -0.5 -0.34375 -0.757812 -0.332031 -1.015625 C -0.320312 -1.273438 -0.304688 -1.527344 -0.285156 -1.785156 C -0.246094 -2.347656 -0.230469 -2.917969 -0.242188 -3.5 C -0.25 -4.121094 -0.257812 -4.738281 -0.257812 -5.347656 C -0.257812 -5.777344 -0.109375 -6.125 0.191406 -6.390625 C 0.488281 -6.65625 0.847656 -6.765625 1.273438 -6.714844 C 1.445312 -6.699219 1.671875 -6.695312 1.949219 -6.695312 C 2.277344 -6.695312 2.578125 -6.6875 2.855469 -6.675781 C 3.101562 -6.667969 3.257812 -6.664062 3.324219 -6.664062 L 3.363281 -6.664062 L 3.398438 -6.660156 C 3.683594 -6.640625 4.078125 -6.628906 4.585938 -6.617188 C 5.089844 -6.609375 5.621094 -6.613281 6.1875 -6.632812 C 6.753906 -6.652344 7.285156 -6.679688 7.785156 -6.71875 C 8.222656 -6.753906 8.546875 -6.800781 8.753906 -6.859375 L 8.777344 -6.867188 L 8.804688 -6.875 C 8.808594 -6.875 8.8125 -6.875 8.8125 -6.875 C 8.808594 -6.875 8.796875 -6.871094 8.789062 -6.863281 C 8.75 -6.84375 8.714844 -6.8125 8.683594 -6.777344 C 8.628906 -6.710938 8.601562 -6.65625 8.597656 -6.609375 L 8.597656 -6.632812 L 8.601562 -6.652344 C 8.589844 -6.5 8.632812 -6.355469 8.730469 -6.214844 C 8.808594 -6.101562 8.898438 -6.027344 9 -5.988281 C 8.871094 -6.035156 8.691406 -6.058594 8.460938 -6.058594 C 8.128906 -6.058594 7.796875 -6.042969 7.46875 -6.015625 C 7.074219 -5.984375 6.761719 -5.96875 6.527344 -5.96875 L 6.527344 -7.101562 L 6.597656 -5.96875 C 5.875 -5.925781 5.164062 -5.953125 4.472656 -6.054688 C 3.691406 -6.171875 2.957031 -6.457031 2.273438 -6.914062 C 1.765625 -7.242188 1.316406 -7.667969 0.925781 -8.1875 C 0.542969 -8.6875 0.253906 -9.214844 0.0546875 -9.765625 C -0.347656 -10.828125 -0.496094 -11.9375 -0.386719 -13.097656 C -0.285156 -14.210938 -0.0078125 -15.269531 0.449219 -16.273438 C 0.738281 -16.894531 1.097656 -17.460938 1.527344 -17.960938 C 1.992188 -18.503906 2.550781 -18.933594 3.195312 -19.242188 C 3.65625 -19.460938 4.132812 -19.660156 4.621094 -19.832031 C 5.199219 -20.039062 5.78125 -20.140625 6.375 -20.140625 L 17.996094 -20.140625 Z M 16.726562 -18.207031 L 17.527344 -19.007812 L 17.527344 -17.875 L 6.375 -17.875 C 6.042969 -17.875 5.710938 -17.816406 5.378906 -17.699219 C 4.964844 -17.550781 4.5625 -17.382812 4.175781 -17.199219 C 3.816406 -17.027344 3.507812 -16.789062 3.246094 -16.488281 C 2.953125 -16.144531 2.707031 -15.757812 2.511719 -15.335938 C 2.164062 -14.566406 1.949219 -13.75 1.867188 -12.890625 C 1.792969 -12.078125 1.898438 -11.292969 2.183594 -10.539062 C 2.304688 -10.203125 2.488281 -9.875 2.730469 -9.550781 C 2.964844 -9.246094 3.230469 -8.996094 3.53125 -8.800781 C 3.933594 -8.53125 4.355469 -8.363281 4.804688 -8.296875 C 5.339844 -8.21875 5.890625 -8.195312 6.457031 -8.230469 L 6.492188 -8.234375 L 6.527344 -8.234375 C 6.695312 -8.234375 6.949219 -8.25 7.277344 -8.277344 C 7.671875 -8.308594 8.066406 -8.324219 8.460938 -8.324219 C 8.957031 -8.324219 9.390625 -8.257812 9.765625 -8.121094 C 10.117188 -7.996094 10.394531 -7.792969 10.589844 -7.511719 C 10.800781 -7.203125 10.890625 -6.855469 10.859375 -6.464844 L 9.730469 -6.558594 L 10.863281 -6.503906 C 10.839844 -6.035156 10.691406 -5.636719 10.414062 -5.3125 C 10.144531 -4.992188 9.78125 -4.777344 9.328125 -4.667969 L 9.066406 -5.773438 L 9.375 -4.683594 C 9.023438 -4.582031 8.550781 -4.507812 7.960938 -4.460938 C 7.429688 -4.417969 6.863281 -4.386719 6.265625 -4.367188 C 5.660156 -4.347656 5.085938 -4.339844 4.542969 -4.351562 C 4 -4.363281 3.570312 -4.378906 3.25 -4.398438 L 3.324219 -5.53125 L 3.324219 -4.398438 C 3.230469 -4.398438 3.042969 -4.402344 2.765625 -4.414062 C 2.519531 -4.421875 2.246094 -4.425781 1.949219 -4.425781 C 1.601562 -4.425781 1.292969 -4.4375 1.023438 -4.464844 C 1.265625 -4.4375 1.492188 -4.515625 1.695312 -4.699219 C 1.90625 -4.882812 2.007812 -5.101562 2.007812 -5.347656 C 2.007812 -4.75 2.015625 -4.148438 2.023438 -3.539062 C 2.035156 -2.894531 2.019531 -2.246094 1.976562 -1.597656 C 1.957031 -1.371094 1.941406 -1.144531 1.933594 -0.917969 C 1.921875 -0.695312 1.917969 -0.46875 1.917969 -0.242188 C 1.917969 -0.5 1.816406 -0.722656 1.605469 -0.90625 C 1.4375 -1.058594 1.253906 -1.132812 1.058594 -1.132812 L 3.519531 -1.132812 C 4.25 -1.132812 5.027344 -1.136719 5.847656 -1.148438 C 6.679688 -1.160156 7.472656 -1.164062 8.234375 -1.164062 C 8.984375 -1.164062 9.609375 -1.167969 10.117188 -1.179688 C 10.636719 -1.1875 10.941406 -1.195312 11.03125 -1.195312 C 11.320312 -1.195312 11.792969 -1.203125 12.445312 -1.222656 C 13.011719 -1.242188 13.570312 -1.332031 14.128906 -1.503906 C 14.503906 -1.621094 14.84375 -1.796875 15.140625 -2.027344 C 15.449219 -2.269531 15.664062 -2.472656 15.777344 -2.640625 L 16.710938 -1.996094 L 15.761719 -2.617188 C 16.074219 -3.089844 16.277344 -3.535156 16.378906 -3.953125 C 16.488281 -4.410156 16.542969 -4.734375 16.542969 -4.925781 C 16.542969 -6.09375 16.449219 -6.972656 16.253906 -7.5625 C 16.070312 -8.117188 15.867188 -8.523438 15.636719 -8.78125 C 15.339844 -9.113281 15.070312 -9.382812 14.832031 -9.585938 C 14.472656 -9.890625 14.058594 -10.09375 13.597656 -10.195312 C 13.011719 -10.324219 12.414062 -10.40625 11.804688 -10.441406 C 11.214844 -10.480469 10.765625 -10.484375 10.457031 -10.460938 C 9.996094 -10.421875 9.441406 -10.460938 8.796875 -10.582031 L 9.003906 -11.695312 L 8.863281 -10.570312 C 8.613281 -10.601562 8.339844 -10.671875 8.042969 -10.785156 C 7.648438 -10.9375 7.359375 -11.210938 7.175781 -11.609375 C 7.054688 -11.875 6.996094 -12.183594 6.996094 -12.539062 C 6.996094 -13.074219 7.199219 -13.511719 7.609375 -13.855469 C 7.902344 -14.097656 8.285156 -14.265625 8.757812 -14.351562 C 9.367188 -14.460938 10.074219 -14.527344 10.878906 -14.550781 L 10.910156 -14.550781 C 11.269531 -14.550781 11.851562 -14.53125 12.648438 -14.488281 L 15.144531 -14.351562 C 16.019531 -14.300781 16.792969 -14.265625 17.46875 -14.246094 L 17.4375 -13.113281 L 17.4375 -14.246094 C 17.214844 -14.246094 17.015625 -14.160156 16.839844 -13.984375 C 16.664062 -13.808594 16.574219 -13.609375 16.574219 -13.386719 L 17.707031 -13.386719 L 16.578125 -13.289062 L 16.488281 -14.347656 C 16.445312 -14.84375 16.421875 -15.226562 16.421875 -15.503906 C 16.421875 -16.191406 16.433594 -16.710938 16.457031 -17.066406 C 16.476562 -17.390625 16.488281 -17.683594 16.5 -17.945312 C 16.507812 -18.167969 16.496094 -18.453125 16.460938 -18.804688 L 17.585938 -18.917969 L 16.574219 -18.410156 C 16.609375 -18.339844 16.660156 -18.273438 16.726562 -18.207031 Z M 16.726562 -18.207031 "/></g></g></g></g><g fill="#000000" fill-opacity="1"><g transform="translate(1.492983, 25.036864)"><g><path d="M 17.53125 -19 C 17.550781 -18.988281 17.570312 -18.960938 17.59375 -18.921875 C 17.625 -18.515625 17.632812 -18.175781 17.625 -17.90625 C 17.625 -17.632812 17.613281 -17.332031 17.59375 -17 C 17.570312 -16.664062 17.5625 -16.164062 17.5625 -15.5 C 17.5625 -15.257812 17.578125 -14.90625 17.609375 -14.4375 C 17.648438 -13.976562 17.679688 -13.628906 17.703125 -13.390625 C 17.703125 -13.203125 17.613281 -13.109375 17.4375 -13.109375 C 16.75 -13.128906 15.960938 -13.164062 15.078125 -13.21875 C 14.191406 -13.269531 13.359375 -13.316406 12.578125 -13.359375 C 11.804688 -13.398438 11.25 -13.421875 10.90625 -13.421875 C 10.164062 -13.398438 9.515625 -13.335938 8.953125 -13.234375 C 8.398438 -13.128906 8.125 -12.898438 8.125 -12.546875 C 8.125 -12.160156 8.226562 -11.925781 8.4375 -11.84375 C 8.65625 -11.757812 8.84375 -11.707031 9 -11.6875 C 9.550781 -11.59375 10.003906 -11.5625 10.359375 -11.59375 C 10.722656 -11.625 11.226562 -11.617188 11.875 -11.578125 C 12.539062 -11.535156 13.195312 -11.441406 13.84375 -11.296875 C 14.488281 -11.160156 15.0625 -10.878906 15.5625 -10.453125 C 15.84375 -10.210938 16.148438 -9.90625 16.484375 -9.53125 C 16.816406 -9.15625 17.097656 -8.613281 17.328125 -7.90625 C 17.554688 -7.207031 17.671875 -6.210938 17.671875 -4.921875 C 17.671875 -4.640625 17.601562 -4.226562 17.46875 -3.6875 C 17.34375 -3.144531 17.09375 -2.582031 16.71875 -2 C 16.53125 -1.738281 16.234375 -1.453125 15.828125 -1.140625 C 15.429688 -0.828125 14.976562 -0.585938 14.46875 -0.421875 C 13.8125 -0.222656 13.148438 -0.113281 12.484375 -0.09375 C 11.816406 -0.0703125 11.332031 -0.0625 11.03125 -0.0625 C 10.945312 -0.0625 10.648438 -0.0546875 10.140625 -0.046875 C 9.628906 -0.0351562 8.992188 -0.03125 8.234375 -0.03125 C 7.472656 -0.03125 6.679688 -0.0234375 5.859375 -0.015625 C 5.035156 -0.00390625 4.253906 0 3.515625 0 C 2.785156 0 2.191406 0 1.734375 0 C 1.285156 0 1.0625 0 1.0625 0 C 0.875 0 0.78125 -0.078125 0.78125 -0.234375 C 0.78125 -0.484375 0.785156 -0.726562 0.796875 -0.96875 C 0.804688 -1.207031 0.820312 -1.445312 0.84375 -1.6875 C 0.882812 -2.289062 0.898438 -2.898438 0.890625 -3.515625 C 0.878906 -4.128906 0.875 -4.738281 0.875 -5.34375 C 0.875 -5.53125 0.960938 -5.613281 1.140625 -5.59375 C 1.367188 -5.570312 1.640625 -5.5625 1.953125 -5.5625 C 2.265625 -5.5625 2.550781 -5.554688 2.8125 -5.546875 C 3.070312 -5.535156 3.242188 -5.53125 3.328125 -5.53125 C 3.628906 -5.507812 4.039062 -5.492188 4.5625 -5.484375 C 5.082031 -5.472656 5.632812 -5.476562 6.21875 -5.5 C 6.800781 -5.519531 7.347656 -5.550781 7.859375 -5.59375 C 8.378906 -5.632812 8.78125 -5.691406 9.0625 -5.765625 C 9.488281 -5.867188 9.710938 -6.132812 9.734375 -6.5625 C 9.753906 -6.800781 9.632812 -6.960938 9.375 -7.046875 C 9.125 -7.140625 8.816406 -7.1875 8.453125 -7.1875 C 8.097656 -7.1875 7.738281 -7.171875 7.375 -7.140625 C 7.007812 -7.109375 6.726562 -7.09375 6.53125 -7.09375 C 5.882812 -7.0625 5.253906 -7.085938 4.640625 -7.171875 C 4.023438 -7.265625 3.445312 -7.492188 2.90625 -7.859375 C 2.5 -8.117188 2.140625 -8.453125 1.828125 -8.859375 C 1.515625 -9.273438 1.28125 -9.707031 1.125 -10.15625 C 0.78125 -11.0625 0.648438 -12.003906 0.734375 -12.984375 C 0.828125 -13.972656 1.078125 -14.910156 1.484375 -15.796875 C 1.722656 -16.328125 2.023438 -16.800781 2.390625 -17.21875 C 2.753906 -17.644531 3.1875 -17.976562 3.6875 -18.21875 C 4.113281 -18.425781 4.550781 -18.609375 5 -18.765625 C 5.457031 -18.921875 5.914062 -19 6.375 -19 Z M 17.53125 -19 "/></g></g></g></g></g><g transform="matrix(1, 0, 0, 1, 87, 2)"><g clip-path="url(#eb353af6e5)"><g clip-path="url(#5e3c8c3093)"><g fill="#ffffff" fill-opacity="1"><g transform="translate(0.995712, 25.036864)"><g><path d="M 0.90625 -20.140625 L 9.277344 -20.140625 C 9.71875 -20.140625 10.082031 -19.988281 10.363281 -19.683594 C 10.617188 -19.40625 10.742188 -19.058594 10.742188 -18.644531 L 10.742188 -18.585938 L 10.738281 -18.527344 C 10.679688 -17.980469 10.648438 -17.207031 10.636719 -16.214844 C 10.625 -15.191406 10.621094 -14.082031 10.621094 -12.886719 C 10.621094 -11.695312 10.632812 -10.535156 10.652344 -9.402344 L 10.695312 -6.394531 C 10.707031 -5.542969 10.722656 -4.953125 10.742188 -4.628906 L 10.742188 -4.5625 C 10.742188 -3.878906 10.761719 -3.203125 10.800781 -2.527344 C 10.839844 -1.84375 10.890625 -1.152344 10.949219 -0.460938 C 10.988281 -0.0078125 10.867188 0.371094 10.589844 0.675781 C 10.308594 0.980469 9.941406 1.132812 9.488281 1.132812 L 0.9375 1.132812 C 0.753906 1.132812 0.578125 1.097656 0.417969 1.023438 C 0.1875 0.917969 0.0117188 0.757812 -0.117188 0.546875 C -0.285156 0.269531 -0.332031 -0.0351562 -0.265625 -0.375 L 0.847656 -0.152344 L -0.273438 -0.324219 C -0.242188 -0.539062 -0.214844 -0.976562 -0.195312 -1.632812 C -0.175781 -2.328125 -0.167969 -3.109375 -0.167969 -3.972656 C -0.167969 -4.84375 -0.171875 -5.667969 -0.179688 -6.4375 C -0.191406 -7.199219 -0.207031 -7.773438 -0.226562 -8.164062 L -0.226562 -8.21875 C -0.226562 -8.699219 -0.230469 -9.328125 -0.242188 -10.109375 L -0.273438 -12.648438 L -0.300781 -15.292969 L -0.332031 -17.542969 C -0.34375 -18.191406 -0.347656 -18.640625 -0.347656 -18.886719 L -0.347656 -19.355469 L 0.4375 -20.140625 Z M 0.90625 -17.875 L 0.90625 -19.007812 L 1.707031 -18.207031 L 1.585938 -18.085938 L 0.785156 -18.886719 L 1.917969 -18.886719 C 1.917969 -18.652344 1.925781 -18.210938 1.933594 -17.570312 L 1.964844 -15.320312 L 1.996094 -12.675781 L 2.023438 -10.136719 C 2.035156 -9.347656 2.039062 -8.707031 2.039062 -8.21875 L 0.90625 -8.21875 L 2.039062 -8.277344 C 2.058594 -7.859375 2.074219 -7.257812 2.085938 -6.464844 C 2.09375 -5.6875 2.101562 -4.855469 2.101562 -3.972656 C 2.101562 -3.085938 2.089844 -2.285156 2.070312 -1.570312 C 2.046875 -0.816406 2.011719 -0.285156 1.964844 0.0195312 L 1.960938 0.046875 L 1.957031 0.0703125 C 2.003906 -0.164062 1.960938 -0.394531 1.824219 -0.621094 C 1.710938 -0.808594 1.554688 -0.949219 1.355469 -1.042969 C 1.21875 -1.101562 1.082031 -1.132812 0.9375 -1.132812 L 9.488281 -1.132812 C 9.421875 -1.132812 9.351562 -1.121094 9.277344 -1.09375 C 9.140625 -1.046875 9.019531 -0.96875 8.917969 -0.855469 C 8.816406 -0.746094 8.746094 -0.621094 8.710938 -0.480469 C 8.691406 -0.402344 8.6875 -0.332031 8.691406 -0.265625 C 8.628906 -0.980469 8.578125 -1.691406 8.539062 -2.398438 C 8.496094 -3.113281 8.476562 -3.835938 8.476562 -4.5625 L 9.609375 -4.5625 L 8.476562 -4.496094 C 8.457031 -4.855469 8.441406 -5.476562 8.429688 -6.359375 L 8.386719 -9.363281 C 8.367188 -10.507812 8.355469 -11.683594 8.355469 -12.886719 C 8.355469 -14.089844 8.359375 -15.207031 8.371094 -16.238281 C 8.382812 -17.300781 8.417969 -18.140625 8.480469 -18.761719 L 9.609375 -18.644531 L 8.476562 -18.644531 C 8.476562 -18.472656 8.546875 -18.308594 8.691406 -18.152344 C 8.859375 -17.964844 9.054688 -17.875 9.277344 -17.875 Z M 0.90625 -17.875 "/></g></g></g></g><g fill="#000000" fill-opacity="1"><g transform="translate(0.995712, 25.036864)"><g><path d="M 0.90625 -19 L 9.28125 -19 C 9.5 -19 9.609375 -18.878906 9.609375 -18.640625 C 9.546875 -18.054688 9.507812 -17.25 9.5 -16.21875 C 9.488281 -15.195312 9.484375 -14.085938 9.484375 -12.890625 C 9.484375 -11.691406 9.492188 -10.519531 9.515625 -9.375 C 9.535156 -8.238281 9.550781 -7.238281 9.5625 -6.375 C 9.570312 -5.507812 9.585938 -4.90625 9.609375 -4.5625 C 9.609375 -3.851562 9.628906 -3.148438 9.671875 -2.453125 C 9.710938 -1.765625 9.765625 -1.066406 9.828125 -0.359375 C 9.835938 -0.117188 9.722656 0 9.484375 0 L 0.9375 0 C 0.851562 0 0.820312 -0.0507812 0.84375 -0.15625 C 0.882812 -0.414062 0.914062 -0.894531 0.9375 -1.59375 C 0.957031 -2.300781 0.96875 -3.09375 0.96875 -3.96875 C 0.96875 -4.84375 0.960938 -5.664062 0.953125 -6.4375 C 0.941406 -7.21875 0.925781 -7.8125 0.90625 -8.21875 C 0.90625 -8.695312 0.898438 -9.328125 0.890625 -10.109375 C 0.878906 -10.898438 0.867188 -11.75 0.859375 -12.65625 C 0.847656 -13.5625 0.835938 -14.441406 0.828125 -15.296875 C 0.816406 -16.160156 0.804688 -16.914062 0.796875 -17.5625 C 0.785156 -18.207031 0.78125 -18.648438 0.78125 -18.890625 C 0.800781 -18.910156 0.84375 -18.945312 0.90625 -19 Z M 0.90625 -19 "/></g></g></g></g></g><g transform="matrix(1, 0, 0, 1, 70, 2)"><g clip-path="url(#23369274cf)"><g clip-path="url(#370460ecdf)"><g fill="#ffffff" fill-opacity="1"><g transform="translate(1.517861, 25.036864)"><g><path d="M 18.070312 -2.453125 C 18.128906 -2.101562 18.191406 -1.746094 18.261719 -1.394531 C 18.324219 -1.0625 18.40625 -0.726562 18.496094 -0.394531 L 17.40625 -0.0898438 L 18.417969 -0.597656 C 18.582031 -0.273438 18.597656 0.0507812 18.464844 0.378906 C 18.378906 0.59375 18.242188 0.769531 18.050781 0.902344 C 17.929688 0.988281 17.796875 1.046875 17.648438 1.085938 L 17.453125 1.132812 L 10.546875 1.132812 C 10.191406 1.132812 9.894531 1.011719 9.648438 0.761719 C 9.460938 0.578125 9.339844 0.347656 9.285156 0.0703125 L 10.394531 -0.152344 L 9.289062 0.105469 C 9.105469 -0.707031 8.957031 -1.4375 8.851562 -2.085938 C 8.757812 -2.667969 8.597656 -3.359375 8.367188 -4.160156 L 8.351562 -4.222656 L 8.339844 -4.285156 C 8.332031 -4.347656 8.308594 -4.425781 8.277344 -4.523438 C 8.328125 -4.363281 8.429688 -4.234375 8.578125 -4.128906 C 8.722656 -4.023438 8.875 -3.972656 9.035156 -3.972656 L 8.964844 -3.972656 L 8.894531 -3.980469 C 9.042969 -3.964844 9.195312 -3.996094 9.351562 -4.074219 C 9.5 -4.148438 9.621094 -4.25 9.714844 -4.386719 C 9.800781 -4.503906 9.851562 -4.628906 9.878906 -4.769531 C 9.863281 -4.683594 9.847656 -4.5625 9.828125 -4.40625 L 9.824219 -4.375 L 9.820312 -4.347656 C 9.796875 -4.214844 9.738281 -3.886719 9.632812 -3.363281 C 9.535156 -2.855469 9.429688 -2.289062 9.320312 -1.664062 C 9.210938 -1.046875 9.128906 -0.511719 9.070312 -0.0664062 L 7.949219 -0.210938 L 9.082031 -0.210938 C 9.082031 0.101562 8.996094 0.375 8.832031 0.605469 C 8.703125 0.785156 8.539062 0.921875 8.339844 1.015625 C 8.171875 1.09375 7.988281 1.132812 7.796875 1.132812 L 0.785156 1.132812 C 0.589844 1.132812 0.402344 1.09375 0.230469 1.015625 C 0.0078125 0.914062 -0.171875 0.765625 -0.308594 0.5625 C -0.492188 0.285156 -0.5625 -0.03125 -0.523438 -0.398438 L 0.605469 -0.273438 L -0.527344 -0.273438 C -0.527344 -0.394531 -0.480469 -0.679688 -0.382812 -1.132812 C -0.304688 -1.496094 -0.21875 -1.90625 -0.128906 -2.363281 C -0.0351562 -2.859375 0.0585938 -3.261719 0.148438 -3.574219 L 1.238281 -3.261719 L 0.140625 -3.546875 L 0.503906 -4.953125 C 0.621094 -5.410156 0.730469 -5.863281 0.828125 -6.316406 L 0.839844 -6.375 L 0.859375 -6.433594 C 0.910156 -6.585938 0.972656 -6.808594 1.046875 -7.105469 C 1.128906 -7.441406 1.226562 -7.789062 1.332031 -8.144531 C 1.425781 -8.476562 1.503906 -8.753906 1.5625 -8.972656 C 1.597656 -9.109375 1.628906 -9.21875 1.65625 -9.300781 C 1.730469 -9.539062 1.839844 -9.726562 1.980469 -9.867188 L 2.78125 -9.066406 L 1.726562 -9.488281 C 1.730469 -9.496094 1.734375 -9.503906 1.734375 -9.507812 C 1.734375 -9.507812 1.734375 -9.503906 1.734375 -9.5 C 1.710938 -9.648438 1.679688 -9.796875 1.632812 -9.949219 L 2.71875 -10.273438 L 1.671875 -9.84375 C 1.523438 -10.207031 1.386719 -10.558594 1.269531 -10.902344 C 1.152344 -11.246094 1.039062 -11.609375 0.933594 -11.996094 C 0.726562 -12.714844 0.53125 -13.476562 0.347656 -14.28125 C 0.183594 -14.996094 0.03125 -15.707031 -0.113281 -16.410156 C -0.257812 -17.125 -0.382812 -17.847656 -0.488281 -18.574219 L -0.488281 -18.59375 L -0.492188 -18.609375 C -0.53125 -18.972656 -0.460938 -19.292969 -0.277344 -19.566406 C -0.140625 -19.769531 0.0351562 -19.921875 0.261719 -20.023438 C 0.433594 -20.101562 0.617188 -20.140625 0.816406 -20.140625 L 7.613281 -20.140625 C 7.96875 -20.140625 8.269531 -20.015625 8.515625 -19.769531 C 8.703125 -19.582031 8.824219 -19.351562 8.878906 -19.078125 L 7.765625 -18.855469 L 8.863281 -19.144531 C 8.96875 -18.742188 9.074219 -18.289062 9.175781 -17.789062 L 9.480469 -16.371094 L 9.734375 -15.199219 C 9.824219 -14.796875 9.867188 -14.527344 9.867188 -14.382812 L 8.734375 -14.382812 L 9.785156 -14.804688 C 9.839844 -14.664062 9.890625 -14.515625 9.933594 -14.363281 C 9.886719 -14.535156 9.789062 -14.683594 9.644531 -14.808594 C 9.464844 -14.957031 9.261719 -15.035156 9.035156 -15.035156 C 8.765625 -15.035156 8.539062 -14.933594 8.351562 -14.730469 C 8.222656 -14.589844 8.144531 -14.441406 8.125 -14.277344 C 8.144531 -14.429688 8.164062 -14.582031 8.183594 -14.726562 L 8.191406 -14.757812 L 8.195312 -14.789062 C 8.214844 -14.882812 8.269531 -15.175781 8.359375 -15.671875 L 8.660156 -17.375 C 8.773438 -18.023438 8.882812 -18.589844 8.984375 -19.066406 L 10.09375 -18.824219 L 8.976562 -19.011719 C 9.019531 -19.273438 9.117188 -19.5 9.273438 -19.6875 C 9.527344 -19.988281 9.851562 -20.140625 10.242188 -20.140625 L 17.164062 -20.140625 C 17.613281 -20.140625 17.964844 -19.96875 18.222656 -19.625 C 18.433594 -19.34375 18.519531 -19.007812 18.46875 -18.625 L 17.34375 -18.765625 L 18.472656 -18.671875 C 18.410156 -17.886719 18.285156 -17.113281 18.097656 -16.351562 C 17.921875 -15.628906 17.734375 -14.917969 17.527344 -14.214844 L 16.4375 -14.535156 L 17.539062 -14.261719 C 17.492188 -14.082031 17.410156 -13.78125 17.28125 -13.363281 L 16.890625 -12.0625 C 16.746094 -11.59375 16.621094 -11.179688 16.507812 -10.824219 C 16.457031 -10.664062 16.417969 -10.539062 16.394531 -10.453125 C 16.386719 -10.421875 16.382812 -10.402344 16.378906 -10.386719 C 16.390625 -10.429688 16.394531 -10.484375 16.394531 -10.546875 L 16.394531 -10.386719 L 16.351562 -10.234375 C 16.320312 -10.132812 16.316406 -10.035156 16.339844 -9.9375 C 16.390625 -9.695312 16.449219 -9.476562 16.515625 -9.273438 L 16.53125 -9.234375 L 16.84375 -8 C 16.949219 -7.589844 17.042969 -7.171875 17.125 -6.75 L 16.015625 -6.527344 L 17.113281 -6.808594 C 17.296875 -6.09375 17.472656 -5.378906 17.632812 -4.664062 C 17.800781 -3.9375 17.945312 -3.199219 18.070312 -2.453125 Z M 15.835938 -2.078125 C 15.71875 -2.78125 15.582031 -3.476562 15.425781 -4.160156 C 15.265625 -4.855469 15.097656 -5.550781 14.917969 -6.246094 L 14.910156 -6.273438 L 14.90625 -6.304688 C 14.828125 -6.6875 14.742188 -7.066406 14.644531 -7.441406 L 14.34375 -8.636719 L 15.441406 -8.914062 L 14.367188 -8.554688 C 14.273438 -8.835938 14.191406 -9.140625 14.121094 -9.460938 C 14.023438 -9.929688 14.039062 -10.394531 14.171875 -10.859375 L 15.261719 -10.546875 L 14.128906 -10.546875 C 14.128906 -10.722656 14.199219 -11.042969 14.34375 -11.503906 C 14.453125 -11.855469 14.578125 -12.257812 14.71875 -12.71875 L 15.113281 -14.015625 C 15.226562 -14.402344 15.304688 -14.664062 15.339844 -14.808594 L 15.34375 -14.832031 L 15.351562 -14.855469 C 15.546875 -15.523438 15.730469 -16.199219 15.898438 -16.886719 C 16.054688 -17.535156 16.160156 -18.191406 16.214844 -18.859375 L 16.222656 -18.90625 C 16.191406 -18.683594 16.253906 -18.472656 16.410156 -18.265625 C 16.519531 -18.117188 16.664062 -18.007812 16.832031 -17.941406 C 16.945312 -17.894531 17.054688 -17.875 17.164062 -17.875 L 10.242188 -17.875 C 10.558594 -17.875 10.816406 -17.996094 11.015625 -18.238281 C 11.121094 -18.363281 11.1875 -18.496094 11.210938 -18.640625 L 11.207031 -18.613281 L 11.199219 -18.585938 C 11.101562 -18.136719 11 -17.601562 10.890625 -16.980469 L 10.589844 -15.269531 C 10.496094 -14.761719 10.441406 -14.449219 10.417969 -14.34375 L 9.308594 -14.566406 L 10.429688 -14.40625 C 10.410156 -14.265625 10.390625 -14.125 10.371094 -13.976562 C 10.328125 -13.664062 10.207031 -13.398438 10.007812 -13.183594 C 9.746094 -12.90625 9.425781 -12.765625 9.035156 -12.765625 C 8.707031 -12.765625 8.421875 -12.871094 8.179688 -13.078125 C 7.964844 -13.257812 7.824219 -13.488281 7.746094 -13.769531 C 7.726562 -13.835938 7.707031 -13.902344 7.679688 -13.964844 L 7.601562 -14.164062 L 7.601562 -14.382812 C 7.601562 -14.347656 7.601562 -14.316406 7.605469 -14.296875 C 7.601562 -14.3125 7.597656 -14.335938 7.59375 -14.367188 C 7.578125 -14.449219 7.554688 -14.566406 7.519531 -14.714844 L 7.261719 -15.902344 L 6.957031 -17.324219 C 6.863281 -17.789062 6.765625 -18.203125 6.671875 -18.566406 L 6.660156 -18.601562 L 6.65625 -18.632812 C 6.691406 -18.460938 6.773438 -18.304688 6.910156 -18.167969 C 7.109375 -17.972656 7.34375 -17.875 7.613281 -17.875 L 0.816406 -17.875 C 0.941406 -17.875 1.066406 -17.902344 1.191406 -17.957031 C 1.363281 -18.035156 1.503906 -18.152344 1.609375 -18.3125 C 1.730469 -18.496094 1.78125 -18.675781 1.761719 -18.859375 L 0.632812 -18.734375 L 1.757812 -18.894531 C 1.855469 -18.210938 1.972656 -17.535156 2.109375 -16.859375 C 2.246094 -16.175781 2.394531 -15.484375 2.554688 -14.789062 C 2.730469 -14.023438 2.917969 -13.292969 3.117188 -12.601562 C 3.210938 -12.261719 3.308594 -11.941406 3.414062 -11.640625 C 3.515625 -11.339844 3.636719 -11.027344 3.765625 -10.707031 L 3.789062 -10.652344 L 3.804688 -10.601562 C 3.882812 -10.347656 3.9375 -10.09375 3.976562 -9.839844 C 4.035156 -9.433594 3.988281 -9.035156 3.832031 -8.644531 L 3.746094 -8.429688 L 3.582031 -8.265625 C 3.683594 -8.367188 3.757812 -8.476562 3.808594 -8.597656 C 3.8125 -8.605469 3.816406 -8.613281 3.816406 -8.621094 C 3.816406 -8.617188 3.816406 -8.613281 3.8125 -8.609375 C 3.800781 -8.566406 3.78125 -8.496094 3.753906 -8.402344 C 3.691406 -8.160156 3.609375 -7.859375 3.503906 -7.507812 C 3.410156 -7.179688 3.320312 -6.863281 3.246094 -6.554688 C 3.15625 -6.203125 3.078125 -5.925781 3.007812 -5.714844 L 1.933594 -6.074219 L 3.042969 -5.832031 C 2.9375 -5.355469 2.824219 -4.875 2.699219 -4.386719 L 2.332031 -2.964844 L 2.328125 -2.953125 C 2.257812 -2.699219 2.179688 -2.359375 2.09375 -1.929688 C 2.003906 -1.457031 1.914062 -1.03125 1.832031 -0.652344 C 1.792969 -0.472656 1.765625 -0.335938 1.746094 -0.238281 C 1.738281 -0.199219 1.734375 -0.171875 1.730469 -0.152344 C 1.734375 -0.179688 1.738281 -0.222656 1.738281 -0.273438 L 1.738281 -0.210938 L 1.730469 -0.148438 C 1.75 -0.328125 1.699219 -0.511719 1.578125 -0.695312 C 1.472656 -0.855469 1.332031 -0.972656 1.160156 -1.050781 C 1.039062 -1.105469 0.914062 -1.132812 0.785156 -1.132812 L 7.796875 -1.132812 C 7.652344 -1.132812 7.515625 -1.101562 7.382812 -1.039062 C 7.222656 -0.964844 7.089844 -0.855469 6.988281 -0.710938 C 6.871094 -0.550781 6.8125 -0.382812 6.8125 -0.210938 L 6.8125 -0.285156 L 6.824219 -0.359375 C 6.886719 -0.835938 6.972656 -1.402344 7.089844 -2.054688 C 7.199219 -2.695312 7.308594 -3.277344 7.410156 -3.800781 C 7.507812 -4.300781 7.566406 -4.609375 7.585938 -4.71875 L 8.703125 -4.53125 L 7.578125 -4.65625 C 7.597656 -4.863281 7.625 -5.035156 7.648438 -5.171875 C 7.726562 -5.601562 7.957031 -5.910156 8.339844 -6.101562 C 8.589844 -6.226562 8.867188 -6.269531 9.175781 -6.230469 L 9.035156 -5.105469 L 9.035156 -6.238281 C 9.359375 -6.238281 9.644531 -6.152344 9.894531 -5.972656 C 10.148438 -5.792969 10.324219 -5.546875 10.425781 -5.238281 C 10.496094 -5.03125 10.546875 -4.839844 10.574219 -4.660156 L 9.457031 -4.472656 L 10.546875 -4.785156 C 10.800781 -3.894531 10.984375 -3.117188 11.089844 -2.445312 C 11.1875 -1.847656 11.324219 -1.167969 11.5 -0.40625 L 11.507812 -0.375 C 11.472656 -0.546875 11.386719 -0.703125 11.25 -0.839844 C 11.054688 -1.035156 10.820312 -1.132812 10.546875 -1.132812 L 17.316406 -1.132812 L 17.316406 0 L 17.039062 -1.097656 L 17.101562 -1.113281 C 16.976562 -1.082031 16.859375 -1.03125 16.75 -0.953125 C 16.570312 -0.828125 16.441406 -0.664062 16.359375 -0.460938 C 16.238281 -0.160156 16.25 0.132812 16.390625 0.417969 L 16.34375 0.316406 L 16.3125 0.210938 C 16.207031 -0.179688 16.113281 -0.570312 16.035156 -0.960938 C 15.964844 -1.335938 15.898438 -1.707031 15.835938 -2.078125 Z M 15.835938 -2.078125 "/></g></g></g></g><g fill="#000000" fill-opacity="1"><g transform="translate(1.517861, 25.036864)"><g><path d="M 16.953125 -2.265625 C 17.015625 -1.898438 17.078125 -1.535156 17.140625 -1.171875 C 17.210938 -0.816406 17.300781 -0.457031 17.40625 -0.09375 C 17.425781 -0.0507812 17.414062 -0.0234375 17.375 -0.015625 C 17.332031 -0.00390625 17.3125 0 17.3125 0 L 10.546875 0 C 10.460938 0 10.410156 -0.0507812 10.390625 -0.15625 C 10.210938 -0.9375 10.070312 -1.640625 9.96875 -2.265625 C 9.875 -2.890625 9.703125 -3.625 9.453125 -4.46875 C 9.429688 -4.59375 9.394531 -4.726562 9.34375 -4.875 C 9.300781 -5.03125 9.195312 -5.109375 9.03125 -5.109375 C 8.875 -5.128906 8.785156 -5.082031 8.765625 -4.96875 C 8.742188 -4.863281 8.722656 -4.71875 8.703125 -4.53125 C 8.679688 -4.40625 8.617188 -4.085938 8.515625 -3.578125 C 8.421875 -3.066406 8.316406 -2.492188 8.203125 -1.859375 C 8.085938 -1.222656 8.003906 -0.675781 7.953125 -0.21875 C 7.953125 -0.0703125 7.898438 0 7.796875 0 L 0.78125 0 C 0.644531 0 0.585938 -0.0859375 0.609375 -0.265625 C 0.609375 -0.304688 0.644531 -0.515625 0.71875 -0.890625 C 0.800781 -1.265625 0.890625 -1.679688 0.984375 -2.140625 C 1.078125 -2.609375 1.160156 -2.984375 1.234375 -3.265625 C 1.359375 -3.722656 1.476562 -4.1875 1.59375 -4.65625 C 1.71875 -5.132812 1.832031 -5.609375 1.9375 -6.078125 C 2 -6.253906 2.066406 -6.503906 2.140625 -6.828125 C 2.222656 -7.148438 2.3125 -7.484375 2.40625 -7.828125 C 2.507812 -8.171875 2.59375 -8.457031 2.65625 -8.6875 C 2.71875 -8.914062 2.757812 -9.039062 2.78125 -9.0625 C 2.863281 -9.269531 2.890625 -9.472656 2.859375 -9.671875 C 2.828125 -9.867188 2.78125 -10.070312 2.71875 -10.28125 C 2.582031 -10.613281 2.457031 -10.941406 2.34375 -11.265625 C 2.226562 -11.585938 2.125 -11.929688 2.03125 -12.296875 C 1.820312 -13.003906 1.628906 -13.75 1.453125 -14.53125 C 1.285156 -15.238281 1.128906 -15.9375 0.984375 -16.625 C 0.847656 -17.320312 0.734375 -18.023438 0.640625 -18.734375 C 0.617188 -18.910156 0.675781 -19 0.8125 -19 L 7.609375 -19 C 7.691406 -19 7.742188 -18.953125 7.765625 -18.859375 C 7.867188 -18.472656 7.96875 -18.035156 8.0625 -17.546875 C 8.164062 -17.066406 8.265625 -16.59375 8.359375 -16.125 C 8.460938 -15.664062 8.550781 -15.273438 8.625 -14.953125 C 8.695312 -14.628906 8.734375 -14.441406 8.734375 -14.390625 C 8.773438 -14.285156 8.8125 -14.175781 8.84375 -14.0625 C 8.875 -13.957031 8.9375 -13.90625 9.03125 -13.90625 C 9.15625 -13.90625 9.226562 -13.976562 9.25 -14.125 C 9.269531 -14.28125 9.289062 -14.425781 9.3125 -14.5625 C 9.332031 -14.664062 9.382812 -14.96875 9.46875 -15.46875 C 9.5625 -15.976562 9.660156 -16.546875 9.765625 -17.171875 C 9.878906 -17.804688 9.988281 -18.359375 10.09375 -18.828125 C 10.113281 -18.941406 10.164062 -19 10.25 -19 L 17.171875 -19 C 17.304688 -19 17.363281 -18.921875 17.34375 -18.765625 C 17.28125 -18.035156 17.160156 -17.316406 16.984375 -16.609375 C 16.816406 -15.910156 16.632812 -15.21875 16.4375 -14.53125 C 16.394531 -14.375 16.3125 -14.09375 16.1875 -13.6875 C 16.070312 -13.28125 15.941406 -12.84375 15.796875 -12.375 C 15.660156 -11.914062 15.535156 -11.507812 15.421875 -11.15625 C 15.316406 -10.8125 15.265625 -10.609375 15.265625 -10.546875 C 15.179688 -10.265625 15.171875 -9.984375 15.234375 -9.703125 C 15.296875 -9.421875 15.363281 -9.160156 15.4375 -8.921875 C 15.539062 -8.515625 15.640625 -8.113281 15.734375 -7.71875 C 15.835938 -7.320312 15.929688 -6.925781 16.015625 -6.53125 C 16.191406 -5.820312 16.359375 -5.113281 16.515625 -4.40625 C 16.679688 -3.707031 16.828125 -2.992188 16.953125 -2.265625 Z M 16.953125 -2.265625 "/></g></g></g></g></g><g transform="matrix(1, 0, 0, 1, 53, 2)"><g clip-path="url(#43a09a8a8c)"><g clip-path="url(#80c5900add)"><g fill="#ffffff" fill-opacity="1"><g transform="translate(1.488916, 24.826934)"><g><path d="M 18.75 -5.015625 L 18.75 -3.355469 C 18.75 -3.203125 18.753906 -2.976562 18.765625 -2.664062 C 18.773438 -2.351562 18.789062 -2.011719 18.808594 -1.648438 C 18.828125 -1.269531 18.84375 -0.945312 18.855469 -0.679688 L 18.871094 -0.261719 L 18.871094 -0.242188 C 18.871094 0.152344 18.742188 0.480469 18.480469 0.742188 C 18.21875 1.003906 17.890625 1.132812 17.496094 1.132812 L 1.148438 1.132812 C 0.679688 1.132812 0.296875 0.976562 0.0078125 0.664062 C -0.28125 0.355469 -0.410156 -0.0351562 -0.375 -0.503906 L 0.753906 -0.421875 L -0.375 -0.46875 C -0.316406 -1.964844 -0.28125 -3.46875 -0.273438 -4.976562 L -0.226562 -9.558594 C -0.207031 -11.070312 -0.148438 -12.589844 -0.0585938 -14.121094 C 0.0273438 -15.550781 -0.0351562 -16.972656 -0.246094 -18.386719 C -0.320312 -18.851562 -0.199219 -19.261719 0.121094 -19.625 C 0.425781 -19.96875 0.808594 -20.140625 1.269531 -20.140625 L 17.375 -20.140625 C 17.6875 -20.140625 17.964844 -20.050781 18.207031 -19.867188 C 18.4375 -19.695312 18.597656 -19.46875 18.691406 -19.183594 L 18.75 -19.011719 L 18.75 -18.824219 C 18.75 -18.78125 18.746094 -18.667969 18.734375 -18.484375 C 18.722656 -18.296875 18.703125 -18.113281 18.679688 -17.929688 L 17.558594 -18.070312 L 18.691406 -18.070312 C 18.691406 -17.949219 18.679688 -17.695312 18.65625 -17.3125 C 18.636719 -16.960938 18.625 -16.59375 18.613281 -16.214844 C 18.605469 -15.832031 18.597656 -15.542969 18.597656 -15.351562 C 18.597656 -15.175781 18.609375 -14.953125 18.625 -14.6875 C 18.644531 -14.417969 18.667969 -14.179688 18.695312 -13.972656 L 18.75 -13.550781 L 18.75 -13.476562 C 18.75 -13.058594 18.601562 -12.714844 18.300781 -12.449219 C 18.042969 -12.21875 17.722656 -12.101562 17.34375 -12.101562 L 17.332031 -12.101562 L 16.726562 -12.117188 C 16.34375 -12.128906 15.855469 -12.132812 15.261719 -12.132812 L 13.339844 -12.132812 C 12.679688 -12.132812 12.070312 -12.121094 11.507812 -12.101562 C 10.96875 -12.085938 10.550781 -12.054688 10.265625 -12.019531 C 10.078125 -11.996094 9.878906 -11.933594 9.667969 -11.839844 C 9.699219 -11.855469 9.734375 -11.882812 9.761719 -11.929688 C 9.777344 -11.949219 9.789062 -11.972656 9.796875 -11.992188 L 9.800781 -11.992188 C 9.8125 -12.152344 9.765625 -12.285156 9.660156 -12.386719 C 9.726562 -12.320312 9.792969 -12.273438 9.859375 -12.246094 L 9.398438 -11.210938 L 9.621094 -12.320312 C 9.660156 -12.3125 9.917969 -12.300781 10.390625 -12.28125 C 10.910156 -12.261719 11.539062 -12.253906 12.269531 -12.253906 C 13.007812 -12.253906 13.753906 -12.257812 14.503906 -12.269531 C 15.265625 -12.277344 15.910156 -12.285156 16.4375 -12.285156 L 17.34375 -12.285156 C 17.722656 -12.285156 18.042969 -12.167969 18.300781 -11.9375 C 18.601562 -11.671875 18.75 -11.328125 18.75 -10.910156 L 18.75 -7.3125 C 18.75 -6.894531 18.601562 -6.550781 18.300781 -6.285156 C 18.042969 -6.054688 17.722656 -5.9375 17.34375 -5.9375 C 16.996094 -5.9375 16.511719 -5.941406 15.890625 -5.953125 C 15.269531 -5.964844 14.632812 -5.976562 13.972656 -6 C 13.320312 -6.019531 12.734375 -6.035156 12.214844 -6.042969 C 11.699219 -6.054688 11.355469 -6.058594 11.179688 -6.058594 L 11.179688 -7.191406 L 11.292969 -6.0625 C 11.054688 -6.039062 10.769531 -6.027344 10.441406 -6.027344 C 10.261719 -6.027344 10.097656 -6.003906 9.941406 -5.957031 C 9.988281 -5.972656 10.023438 -6.003906 10.050781 -6.050781 C 10.035156 -6.027344 10.027344 -6.011719 10.027344 -6.003906 C 10.027344 -6.003906 10.027344 -6.007812 10.027344 -6.011719 C 10.039062 -6.050781 10.039062 -6.09375 10.035156 -6.140625 C 10.023438 -6.261719 9.980469 -6.355469 9.910156 -6.421875 C 10.027344 -6.308594 10.148438 -6.238281 10.277344 -6.207031 L 10.003906 -5.105469 L 10.222656 -6.21875 C 10.351562 -6.191406 10.691406 -6.179688 11.242188 -6.179688 C 11.851562 -6.179688 12.546875 -6.195312 13.328125 -6.222656 L 15.625 -6.316406 C 16.351562 -6.34375 16.90625 -6.371094 17.285156 -6.390625 L 17.34375 -6.390625 C 17.722656 -6.390625 18.042969 -6.277344 18.300781 -6.042969 C 18.601562 -5.777344 18.75 -5.4375 18.75 -5.015625 Z M 16.484375 -5.015625 C 16.484375 -4.757812 16.589844 -4.535156 16.796875 -4.351562 C 16.964844 -4.199219 17.148438 -4.125 17.34375 -4.125 L 17.34375 -5.257812 L 17.40625 -4.125 C 17.019531 -4.105469 16.453125 -4.082031 15.710938 -4.050781 L 13.414062 -3.960938 C 12.605469 -3.929688 11.878906 -3.914062 11.242188 -3.914062 C 10.542969 -3.914062 10.054688 -3.941406 9.78125 -3.996094 L 9.753906 -4 L 9.726562 -4.007812 C 9.210938 -4.136719 8.746094 -4.398438 8.339844 -4.789062 C 8.007812 -5.109375 7.820312 -5.488281 7.777344 -5.925781 C 7.742188 -6.308594 7.824219 -6.6875 8.023438 -7.0625 C 8.285156 -7.59375 8.707031 -7.949219 9.277344 -8.125 C 9.648438 -8.238281 10.035156 -8.296875 10.441406 -8.296875 C 10.695312 -8.296875 10.902344 -8.304688 11.066406 -8.320312 L 11.125 -8.324219 L 11.179688 -8.324219 C 11.371094 -8.324219 11.730469 -8.320312 12.261719 -8.308594 C 12.789062 -8.300781 13.382812 -8.285156 14.039062 -8.265625 C 14.691406 -8.246094 15.320312 -8.230469 15.929688 -8.21875 C 16.535156 -8.210938 17.007812 -8.203125 17.34375 -8.203125 C 17.148438 -8.203125 16.964844 -8.128906 16.796875 -7.976562 C 16.589844 -7.792969 16.484375 -7.570312 16.484375 -7.3125 L 16.484375 -10.910156 C 16.484375 -10.648438 16.589844 -10.429688 16.796875 -10.242188 C 16.964844 -10.09375 17.148438 -10.015625 17.34375 -10.015625 L 16.4375 -10.015625 C 15.921875 -10.015625 15.285156 -10.011719 14.535156 -10.003906 C 13.773438 -9.992188 13.019531 -9.988281 12.269531 -9.988281 C 11.507812 -9.988281 10.855469 -9.996094 10.308594 -10.019531 C 9.710938 -10.039062 9.335938 -10.066406 9.175781 -10.101562 L 9.050781 -10.125 L 8.9375 -10.175781 C 8.640625 -10.308594 8.363281 -10.492188 8.109375 -10.730469 C 7.679688 -11.136719 7.492188 -11.640625 7.546875 -12.242188 C 7.585938 -12.617188 7.707031 -12.945312 7.90625 -13.226562 C 8.113281 -13.523438 8.390625 -13.75 8.734375 -13.90625 C 9.148438 -14.09375 9.5625 -14.214844 9.984375 -14.269531 C 10.339844 -14.3125 10.820312 -14.347656 11.429688 -14.367188 C 12.015625 -14.390625 12.652344 -14.398438 13.339844 -14.398438 L 15.261719 -14.398438 C 15.875 -14.398438 16.382812 -14.394531 16.785156 -14.382812 L 17.375 -14.367188 L 17.34375 -13.234375 L 17.34375 -14.367188 C 17.148438 -14.367188 16.964844 -14.292969 16.796875 -14.144531 C 16.589844 -13.957031 16.484375 -13.734375 16.484375 -13.476562 L 17.617188 -13.476562 L 16.492188 -13.332031 L 16.449219 -13.679688 C 16.414062 -13.933594 16.386719 -14.21875 16.367188 -14.53125 C 16.34375 -14.851562 16.332031 -15.125 16.332031 -15.351562 C 16.332031 -15.5625 16.339844 -15.867188 16.347656 -16.269531 C 16.359375 -16.675781 16.375 -17.066406 16.394531 -17.4375 C 16.414062 -17.78125 16.421875 -17.992188 16.421875 -18.070312 L 16.421875 -18.140625 L 16.433594 -18.210938 C 16.449219 -18.347656 16.460938 -18.488281 16.472656 -18.625 C 16.476562 -18.703125 16.480469 -18.761719 16.480469 -18.804688 C 16.484375 -18.824219 16.484375 -18.839844 16.484375 -18.847656 C 16.484375 -18.851562 16.484375 -18.851562 16.484375 -18.851562 C 16.484375 -18.84375 16.484375 -18.835938 16.484375 -18.824219 L 17.617188 -18.824219 L 16.542969 -18.46875 C 16.597656 -18.304688 16.699219 -18.167969 16.847656 -18.054688 C 17.007812 -17.933594 17.183594 -17.875 17.375 -17.875 L 1.269531 -17.875 C 1.488281 -17.875 1.667969 -17.957031 1.8125 -18.117188 C 1.972656 -18.296875 2.035156 -18.5 1.996094 -18.71875 C 2.230469 -17.152344 2.300781 -15.574219 2.203125 -13.984375 C 2.113281 -12.488281 2.058594 -11.007812 2.039062 -9.539062 L 1.996094 -4.964844 C 1.984375 -3.429688 1.949219 -1.902344 1.886719 -0.378906 L 1.886719 -0.34375 C 1.890625 -0.394531 1.882812 -0.457031 1.863281 -0.523438 C 1.832031 -0.65625 1.765625 -0.773438 1.667969 -0.875 C 1.574219 -0.980469 1.460938 -1.054688 1.332031 -1.097656 C 1.265625 -1.121094 1.203125 -1.132812 1.148438 -1.132812 L 17.496094 -1.132812 C 17.265625 -1.132812 17.058594 -1.042969 16.875 -0.863281 C 16.695312 -0.679688 16.605469 -0.472656 16.605469 -0.242188 L 17.738281 -0.242188 L 16.605469 -0.199219 L 16.589844 -0.589844 C 16.582031 -0.847656 16.566406 -1.160156 16.546875 -1.523438 C 16.527344 -1.90625 16.511719 -2.261719 16.5 -2.59375 C 16.488281 -2.925781 16.484375 -3.179688 16.484375 -3.355469 Z M 16.484375 -5.015625 "/></g></g></g></g><g fill="#000000" fill-opacity="1"><g transform="translate(1.488916, 24.826934)"><g><path d="M 17.625 -5.015625 C 17.625 -4.753906 17.625 -4.46875 17.625 -4.15625 C 17.625 -3.84375 17.625 -3.578125 17.625 -3.359375 C 17.625 -3.191406 17.625 -2.945312 17.625 -2.625 C 17.632812 -2.300781 17.648438 -1.953125 17.671875 -1.578125 C 17.691406 -1.210938 17.707031 -0.894531 17.71875 -0.625 C 17.726562 -0.363281 17.734375 -0.234375 17.734375 -0.234375 C 17.734375 -0.078125 17.65625 0 17.5 0 L 1.140625 0 C 0.859375 0 0.726562 -0.140625 0.75 -0.421875 C 0.8125 -1.929688 0.847656 -3.445312 0.859375 -4.96875 C 0.867188 -6.488281 0.882812 -8.015625 0.90625 -9.546875 C 0.925781 -11.035156 0.976562 -12.535156 1.0625 -14.046875 C 1.15625 -15.554688 1.09375 -17.054688 0.875 -18.546875 C 0.851562 -18.671875 0.882812 -18.773438 0.96875 -18.859375 C 1.050781 -18.953125 1.148438 -19 1.265625 -19 L 17.375 -19 C 17.5 -19 17.582031 -18.941406 17.625 -18.828125 C 17.625 -18.804688 17.617188 -18.710938 17.609375 -18.546875 C 17.597656 -18.390625 17.582031 -18.234375 17.5625 -18.078125 C 17.5625 -17.972656 17.550781 -17.738281 17.53125 -17.375 C 17.507812 -17.007812 17.492188 -16.628906 17.484375 -16.234375 C 17.472656 -15.847656 17.46875 -15.550781 17.46875 -15.34375 C 17.46875 -15.144531 17.476562 -14.898438 17.5 -14.609375 C 17.519531 -14.316406 17.546875 -14.054688 17.578125 -13.828125 C 17.609375 -13.597656 17.625 -13.484375 17.625 -13.484375 C 17.625 -13.316406 17.53125 -13.234375 17.34375 -13.234375 C 17.34375 -13.234375 17.144531 -13.238281 16.75 -13.25 C 16.363281 -13.257812 15.867188 -13.265625 15.265625 -13.265625 C 14.660156 -13.265625 14.019531 -13.265625 13.34375 -13.265625 C 12.664062 -13.265625 12.039062 -13.253906 11.46875 -13.234375 C 10.894531 -13.210938 10.445312 -13.179688 10.125 -13.140625 C 9.820312 -13.097656 9.515625 -13.003906 9.203125 -12.859375 C 8.890625 -12.722656 8.710938 -12.476562 8.671875 -12.125 C 8.648438 -11.894531 8.71875 -11.703125 8.875 -11.546875 C 9.039062 -11.398438 9.210938 -11.289062 9.390625 -11.21875 C 9.492188 -11.195312 9.8125 -11.175781 10.34375 -11.15625 C 10.882812 -11.132812 11.523438 -11.125 12.265625 -11.125 C 13.015625 -11.125 13.765625 -11.128906 14.515625 -11.140625 C 15.273438 -11.148438 15.914062 -11.15625 16.4375 -11.15625 C 16.957031 -11.15625 17.257812 -11.15625 17.34375 -11.15625 C 17.53125 -11.15625 17.625 -11.070312 17.625 -10.90625 L 17.625 -8.40625 C 17.625 -8.175781 17.625 -7.976562 17.625 -7.8125 C 17.625 -7.65625 17.625 -7.488281 17.625 -7.3125 C 17.625 -7.15625 17.53125 -7.078125 17.34375 -7.078125 C 17 -7.078125 16.519531 -7.078125 15.90625 -7.078125 C 15.289062 -7.085938 14.65625 -7.101562 14 -7.125 C 13.351562 -7.144531 12.765625 -7.160156 12.234375 -7.171875 C 11.710938 -7.179688 11.363281 -7.1875 11.1875 -7.1875 C 10.976562 -7.164062 10.726562 -7.15625 10.4375 -7.15625 C 10.144531 -7.15625 9.867188 -7.113281 9.609375 -7.03125 C 9.347656 -6.957031 9.15625 -6.800781 9.03125 -6.5625 C 8.832031 -6.175781 8.863281 -5.859375 9.125 -5.609375 C 9.382812 -5.359375 9.675781 -5.191406 10 -5.109375 C 10.195312 -5.066406 10.609375 -5.046875 11.234375 -5.046875 C 11.859375 -5.046875 12.566406 -5.0625 13.359375 -5.09375 C 14.160156 -5.125 14.925781 -5.15625 15.65625 -5.1875 C 16.394531 -5.21875 16.957031 -5.242188 17.34375 -5.265625 C 17.53125 -5.265625 17.625 -5.179688 17.625 -5.015625 Z M 17.625 -5.015625 "/></g></g></g></g></g><g transform="matrix(1, 0, 0, 1, 37, 2)"><g clip-path="url(#cc4b6c3755)"><g clip-path="url(#718becc0ec)"><g fill="#ffffff" fill-opacity="1"><g transform="translate(1.011061, 24.826934)"><g><path d="M 18.992188 -8.640625 C 18.992188 -8.152344 18.988281 -7.558594 18.976562 -6.859375 C 18.96875 -6.167969 18.960938 -5.449219 18.960938 -4.699219 C 18.960938 -3.9375 18.957031 -3.222656 18.945312 -2.550781 C 18.9375 -1.890625 18.933594 -1.339844 18.933594 -0.890625 C 18.933594 -0.679688 18.933594 -0.511719 18.9375 -0.394531 C 18.941406 -0.347656 18.941406 -0.308594 18.945312 -0.285156 C 18.941406 -0.300781 18.9375 -0.328125 18.929688 -0.367188 L 18.960938 -0.230469 L 18.960938 -0.0898438 C 18.960938 0.167969 18.894531 0.402344 18.757812 0.605469 C 18.640625 0.78125 18.488281 0.914062 18.300781 1.007812 C 18.132812 1.089844 17.957031 1.132812 17.769531 1.132812 L 9.972656 1.132812 C 9.640625 1.132812 9.355469 1.015625 9.125 0.785156 C 8.894531 0.554688 8.777344 0.273438 8.777344 -0.0585938 L 9.910156 -0.0585938 L 8.835938 0.296875 C 8.75 0.0429688 8.671875 -0.210938 8.597656 -0.46875 C 8.53125 -0.695312 8.460938 -0.925781 8.382812 -1.152344 L 9.457031 -1.511719 L 8.390625 -1.128906 C 8.1875 -1.695312 8.023438 -2.351562 7.902344 -3.09375 C 7.8125 -3.640625 7.6875 -4.058594 7.527344 -4.347656 L 7.488281 -4.425781 C 7.511719 -4.378906 7.546875 -4.328125 7.589844 -4.277344 C 7.683594 -4.171875 7.796875 -4.09375 7.933594 -4.042969 C 8.089844 -3.984375 8.242188 -3.96875 8.402344 -3.996094 C 8.496094 -4.011719 8.578125 -4.039062 8.652344 -4.082031 C 8.746094 -4.136719 8.824219 -4.214844 8.875 -4.320312 C 8.910156 -4.390625 8.929688 -4.449219 8.929688 -4.503906 L 8.929688 -4.46875 L 8.925781 -4.433594 C 8.890625 -3.824219 8.886719 -3.125 8.914062 -2.339844 L 8.988281 -0.109375 L 8.988281 -0.0898438 C 8.988281 0.167969 8.921875 0.402344 8.785156 0.605469 C 8.667969 0.78125 8.515625 0.914062 8.328125 1.007812 C 8.164062 1.089844 7.984375 1.132812 7.796875 1.132812 L 0.839844 1.101562 C 0.511719 1.101562 0.230469 0.988281 0 0.757812 C -0.230469 0.523438 -0.347656 0.242188 -0.347656 -0.0898438 C -0.347656 -1.773438 -0.328125 -3.441406 -0.285156 -5.105469 C -0.246094 -6.746094 -0.226562 -8.398438 -0.226562 -10.0625 C -0.226562 -10.621094 -0.230469 -11.28125 -0.242188 -12.042969 C -0.25 -12.8125 -0.257812 -13.597656 -0.257812 -14.398438 C -0.257812 -15.1875 -0.261719 -15.929688 -0.273438 -16.617188 L -0.300781 -18.292969 L -0.316406 -18.933594 L -0.316406 -18.945312 C -0.316406 -19.28125 -0.203125 -19.5625 0.03125 -19.792969 C 0.261719 -20.023438 0.542969 -20.140625 0.875 -20.140625 L 8.460938 -20.140625 C 8.785156 -20.140625 9.0625 -20.023438 9.292969 -19.792969 C 9.390625 -19.695312 9.46875 -19.582031 9.535156 -19.453125 L 9.578125 -19.367188 L 9.605469 -19.277344 C 9.757812 -18.773438 9.898438 -18.171875 10.027344 -17.476562 C 10.148438 -16.832031 10.277344 -16.1875 10.414062 -15.542969 C 10.542969 -14.953125 10.683594 -14.46875 10.839844 -14.085938 L 10.859375 -14.039062 L 10.875 -13.992188 C 10.859375 -14.042969 10.832031 -14.09375 10.792969 -14.148438 C 10.710938 -14.261719 10.609375 -14.351562 10.480469 -14.414062 C 10.339844 -14.484375 10.199219 -14.515625 10.050781 -14.507812 C 9.96875 -14.503906 9.898438 -14.488281 9.839844 -14.464844 L 9.875 -14.480469 L 9.914062 -14.492188 C 9.726562 -14.429688 9.585938 -14.316406 9.496094 -14.148438 C 9.472656 -14.105469 9.457031 -14.066406 9.445312 -14.03125 L 9.445312 -14.050781 L 9.449219 -14.066406 C 9.484375 -14.460938 9.507812 -14.945312 9.519531 -15.519531 C 9.527344 -16.117188 9.535156 -16.726562 9.535156 -17.34375 L 9.535156 -18.917969 C 9.535156 -19.175781 9.601562 -19.40625 9.738281 -19.613281 C 9.855469 -19.789062 10.007812 -19.921875 10.195312 -20.015625 C 10.359375 -20.097656 10.539062 -20.140625 10.726562 -20.140625 L 17.828125 -20.140625 C 18.015625 -20.140625 18.195312 -20.097656 18.363281 -20.015625 C 18.550781 -19.921875 18.699219 -19.789062 18.816406 -19.613281 C 18.953125 -19.40625 19.023438 -19.175781 19.023438 -18.917969 L 19.023438 -18.855469 L 19.007812 -13.730469 Z M 16.726562 -8.644531 L 16.742188 -13.738281 L 16.757812 -18.855469 L 16.757812 -18.917969 C 16.757812 -18.71875 16.8125 -18.53125 16.929688 -18.355469 C 17.039062 -18.195312 17.175781 -18.074219 17.347656 -17.988281 C 17.5 -17.910156 17.660156 -17.875 17.828125 -17.875 L 10.726562 -17.875 C 10.894531 -17.875 11.054688 -17.910156 11.207031 -17.988281 C 11.378906 -18.074219 11.519531 -18.195312 11.625 -18.355469 C 11.742188 -18.53125 11.800781 -18.71875 11.800781 -18.917969 L 11.800781 -17.34375 C 11.800781 -16.714844 11.796875 -16.09375 11.785156 -15.484375 C 11.773438 -14.847656 11.746094 -14.304688 11.703125 -13.851562 L 10.578125 -13.960938 L 11.707031 -13.886719 C 11.6875 -13.566406 11.609375 -13.285156 11.476562 -13.046875 C 11.285156 -12.699219 11.003906 -12.464844 10.632812 -12.34375 L 10.273438 -13.417969 L 10.710938 -12.371094 C 10.269531 -12.1875 9.855469 -12.191406 9.464844 -12.386719 C 9.09375 -12.574219 8.84375 -12.886719 8.707031 -13.324219 L 9.789062 -13.660156 L 8.742188 -13.230469 C 8.535156 -13.734375 8.355469 -14.347656 8.199219 -15.066406 C 8.054688 -15.734375 7.921875 -16.398438 7.800781 -17.0625 C 7.6875 -17.675781 7.566406 -18.195312 7.4375 -18.617188 L 8.523438 -18.945312 L 7.507812 -18.441406 C 7.550781 -18.351562 7.613281 -18.265625 7.691406 -18.191406 C 7.902344 -17.980469 8.160156 -17.875 8.460938 -17.875 L 0.875 -17.875 C 1.167969 -17.875 1.421875 -17.980469 1.632812 -18.191406 C 1.84375 -18.402344 1.949219 -18.652344 1.949219 -18.945312 L 0.816406 -18.945312 L 1.949219 -18.972656 L 1.964844 -18.332031 L 1.996094 -16.652344 C 2.003906 -15.949219 2.007812 -15.199219 2.007812 -14.398438 C 2.007812 -13.609375 2.015625 -12.832031 2.023438 -12.070312 C 2.035156 -11.300781 2.039062 -10.632812 2.039062 -10.0625 C 2.039062 -8.382812 2.019531 -6.710938 1.980469 -5.050781 C 1.9375 -3.40625 1.917969 -1.753906 1.917969 -0.0898438 C 1.917969 -0.382812 1.8125 -0.636719 1.601562 -0.847656 C 1.390625 -1.058594 1.140625 -1.164062 0.851562 -1.164062 L 7.796875 -1.132812 C 7.628906 -1.132812 7.46875 -1.09375 7.316406 -1.019531 C 7.144531 -0.933594 7.003906 -0.8125 6.898438 -0.652344 C 6.78125 -0.476562 6.722656 -0.289062 6.722656 -0.0898438 L 7.855469 -0.0898438 L 6.722656 -0.0507812 L 6.648438 -2.253906 C 6.617188 -3.117188 6.621094 -3.890625 6.664062 -4.574219 L 7.796875 -4.503906 L 6.664062 -4.503906 C 6.664062 -4.816406 6.730469 -5.101562 6.859375 -5.355469 C 7.007812 -5.648438 7.226562 -5.875 7.515625 -6.042969 C 7.921875 -6.277344 8.328125 -6.316406 8.738281 -6.164062 C 9.101562 -6.023438 9.375 -5.757812 9.554688 -5.363281 L 8.523438 -4.894531 L 9.515625 -5.441406 C 9.796875 -4.925781 10.007812 -4.265625 10.136719 -3.460938 C 10.238281 -2.855469 10.367188 -2.332031 10.523438 -1.894531 L 10.527344 -1.882812 L 10.535156 -1.871094 C 10.617188 -1.613281 10.699219 -1.359375 10.773438 -1.101562 C 10.839844 -0.875 10.910156 -0.648438 10.988281 -0.417969 L 11.042969 -0.246094 L 11.042969 -0.0585938 C 11.042969 -0.351562 10.9375 -0.605469 10.726562 -0.816406 C 10.515625 -1.027344 10.265625 -1.132812 9.972656 -1.132812 L 17.769531 -1.132812 C 17.601562 -1.132812 17.441406 -1.09375 17.289062 -1.019531 C 17.117188 -0.933594 16.976562 -0.8125 16.871094 -0.652344 C 16.753906 -0.476562 16.695312 -0.289062 16.695312 -0.0898438 L 17.828125 -0.0898438 L 16.730469 0.183594 C 16.6875 0.0117188 16.664062 -0.34375 16.664062 -0.890625 C 16.664062 -1.351562 16.671875 -1.914062 16.679688 -2.585938 C 16.691406 -3.246094 16.695312 -3.949219 16.695312 -4.699219 C 16.695312 -5.460938 16.699219 -6.191406 16.710938 -6.890625 C 16.722656 -7.582031 16.726562 -8.164062 16.726562 -8.640625 Z M 16.726562 -8.644531 "/></g></g></g></g><g fill="#000000" fill-opacity="1"><g transform="translate(1.011061, 24.826934)"><g><path d="M 17.859375 -8.640625 C 17.859375 -8.160156 17.851562 -7.570312 17.84375 -6.875 C 17.832031 -6.175781 17.828125 -5.445312 17.828125 -4.6875 C 17.828125 -3.9375 17.820312 -3.226562 17.8125 -2.5625 C 17.800781 -1.90625 17.796875 -1.347656 17.796875 -0.890625 C 17.796875 -0.441406 17.804688 -0.175781 17.828125 -0.09375 C 17.828125 -0.03125 17.804688 0 17.765625 0 L 9.96875 0 C 9.925781 0 9.90625 -0.0195312 9.90625 -0.0625 C 9.832031 -0.300781 9.757812 -0.539062 9.6875 -0.78125 C 9.613281 -1.019531 9.535156 -1.265625 9.453125 -1.515625 C 9.273438 -2.015625 9.128906 -2.601562 9.015625 -3.28125 C 8.910156 -3.957031 8.742188 -4.492188 8.515625 -4.890625 C 8.421875 -5.117188 8.273438 -5.175781 8.078125 -5.0625 C 7.890625 -4.945312 7.796875 -4.757812 7.796875 -4.5 C 7.753906 -3.851562 7.75 -3.117188 7.78125 -2.296875 C 7.8125 -1.472656 7.835938 -0.738281 7.859375 -0.09375 C 7.859375 -0.03125 7.835938 0 7.796875 0 L 0.84375 -0.03125 C 0.800781 -0.03125 0.78125 -0.0507812 0.78125 -0.09375 C 0.78125 -1.757812 0.800781 -3.421875 0.84375 -5.078125 C 0.882812 -6.734375 0.90625 -8.394531 0.90625 -10.0625 C 0.90625 -10.625 0.898438 -11.285156 0.890625 -12.046875 C 0.878906 -12.816406 0.875 -13.597656 0.875 -14.390625 C 0.875 -15.191406 0.867188 -15.9375 0.859375 -16.625 C 0.847656 -17.320312 0.835938 -17.882812 0.828125 -18.3125 C 0.816406 -18.738281 0.8125 -18.953125 0.8125 -18.953125 C 0.8125 -18.984375 0.832031 -19 0.875 -19 L 8.46875 -19 C 8.476562 -19 8.492188 -18.984375 8.515625 -18.953125 C 8.660156 -18.484375 8.789062 -17.921875 8.90625 -17.265625 C 9.03125 -16.609375 9.160156 -15.953125 9.296875 -15.296875 C 9.441406 -14.648438 9.609375 -14.101562 9.796875 -13.65625 C 9.867188 -13.394531 10.03125 -13.316406 10.28125 -13.421875 C 10.457031 -13.484375 10.554688 -13.664062 10.578125 -13.96875 C 10.617188 -14.382812 10.644531 -14.894531 10.65625 -15.5 C 10.664062 -16.101562 10.671875 -16.71875 10.671875 -17.34375 C 10.671875 -17.96875 10.671875 -18.492188 10.671875 -18.921875 C 10.671875 -18.972656 10.691406 -19 10.734375 -19 L 17.828125 -19 C 17.867188 -19 17.890625 -18.972656 17.890625 -18.921875 C 17.890625 -18.898438 17.890625 -18.878906 17.890625 -18.859375 C 17.890625 -17.140625 17.882812 -15.429688 17.875 -13.734375 C 17.863281 -12.035156 17.859375 -10.335938 17.859375 -8.640625 Z M 17.859375 -8.640625 "/></g></g></g></g></g><g transform="matrix(1, 0, 0, 1, 22, 2)"><g clip-path="url(#abd511be0b)"><g clip-path="url(#40fe6583df)"><g fill="#ffffff" fill-opacity="1"><g transform="translate(1.144527, 24.826934)"><g><path d="M 18.25 1.132812 L 8.402344 1.132812 C 7.996094 1.132812 7.671875 0.980469 7.425781 0.671875 C 7.238281 0.4375 7.148438 0.164062 7.148438 -0.152344 L 7.148438 -0.210938 C 7.167969 -0.609375 7.210938 -1.140625 7.273438 -1.8125 C 7.332031 -2.472656 7.398438 -3.136719 7.46875 -3.804688 L 7.660156 -5.550781 L 7.75 -5.734375 C 7.910156 -6.054688 8.167969 -6.273438 8.527344 -6.394531 C 8.703125 -6.453125 8.871094 -6.480469 9.035156 -6.480469 L 9.304688 -6.480469 L 9.542969 -6.363281 C 9.433594 -6.417969 9.335938 -6.449219 9.25 -6.457031 C 9.28125 -6.453125 9.328125 -6.453125 9.398438 -6.453125 L 10.425781 -6.453125 L 10.425781 -5.320312 L 9.941406 -6.34375 L 10.199219 -6.464844 C 10.078125 -6.40625 9.980469 -6.316406 9.90625 -6.195312 C 9.839844 -6.082031 9.804688 -5.972656 9.804688 -5.863281 L 10.9375 -5.863281 L 9.828125 -5.640625 C 9.804688 -5.761719 9.753906 -6.078125 9.679688 -6.59375 L 9.4375 -8.285156 C 9.347656 -8.929688 9.265625 -9.546875 9.195312 -10.136719 C 9.121094 -10.742188 9.074219 -11.191406 9.054688 -11.492188 L 9.050781 -11.507812 L 9.050781 -11.523438 C 9.035156 -11.859375 8.996094 -12.128906 8.925781 -12.332031 L 8.925781 -12.339844 C 8.945312 -12.304688 8.976562 -12.265625 9.011719 -12.230469 C 9.15625 -12.085938 9.335938 -12.011719 9.550781 -12.011719 L 9.507812 -12.011719 L 9.46875 -12.015625 C 9.59375 -12.003906 9.714844 -12.042969 9.835938 -12.125 C 9.929688 -12.191406 9.992188 -12.261719 10.019531 -12.335938 C 9.941406 -12.128906 9.898438 -11.988281 9.886719 -11.917969 C 9.824219 -11.449219 9.722656 -10.808594 9.578125 -9.988281 C 9.4375 -9.179688 9.273438 -8.285156 9.089844 -7.316406 C 8.910156 -6.355469 8.742188 -5.398438 8.582031 -4.4375 C 8.421875 -3.480469 8.289062 -2.609375 8.179688 -1.824219 C 8.074219 -1.0625 8.011719 -0.484375 7.992188 -0.0976562 L 6.859375 -0.152344 L 7.992188 -0.152344 C 7.992188 0.109375 7.929688 0.339844 7.808594 0.546875 C 7.695312 0.730469 7.546875 0.875 7.359375 0.980469 C 7.175781 1.082031 6.980469 1.132812 6.769531 1.132812 L 0.664062 1.132812 C 0.453125 1.132812 0.253906 1.082031 0.0703125 0.984375 C -0.152344 0.863281 -0.320312 0.6875 -0.433594 0.460938 C -0.558594 0.210938 -0.59375 -0.0664062 -0.542969 -0.367188 L -0.535156 -0.414062 L -0.523438 -0.457031 C -0.515625 -0.488281 -0.511719 -0.523438 -0.507812 -0.5625 C -0.492188 -0.703125 -0.46875 -0.839844 -0.433594 -0.96875 L 0.664062 -0.695312 L -0.441406 -0.941406 C -0.402344 -1.117188 -0.324219 -1.496094 -0.203125 -2.085938 L 0.203125 -4.09375 L 0.640625 -6.253906 C 0.789062 -6.96875 0.914062 -7.53125 1.019531 -7.933594 L 2.117188 -7.644531 L 0.996094 -7.816406 C 1.035156 -8.089844 1.113281 -8.539062 1.226562 -9.171875 C 1.335938 -9.792969 1.457031 -10.503906 1.585938 -11.316406 L 1.992188 -13.824219 C 2.132812 -14.675781 2.257812 -15.480469 2.367188 -16.238281 C 2.480469 -17.007812 2.578125 -17.648438 2.660156 -18.160156 C 2.730469 -18.601562 2.765625 -18.847656 2.765625 -18.886719 L 2.765625 -19.027344 L 2.796875 -19.160156 C 2.859375 -19.40625 2.972656 -19.609375 3.140625 -19.777344 C 3.382812 -20.019531 3.675781 -20.140625 4.019531 -20.140625 L 15.019531 -20.140625 C 15.230469 -20.140625 15.425781 -20.089844 15.609375 -19.984375 C 15.753906 -19.902344 15.875 -19.792969 15.976562 -19.65625 C 16.085938 -19.515625 16.160156 -19.347656 16.207031 -19.160156 L 16.214844 -19.136719 L 16.21875 -19.109375 C 16.261719 -18.898438 16.339844 -18.472656 16.453125 -17.828125 L 16.816406 -15.691406 L 17.195312 -13.4375 C 17.3125 -12.734375 17.410156 -12.1875 17.488281 -11.796875 L 17.492188 -11.78125 L 17.496094 -11.769531 C 17.636719 -10.953125 17.769531 -10.140625 17.890625 -9.324219 L 18.253906 -6.90625 L 17.132812 -6.738281 L 18.234375 -7.011719 C 18.28125 -6.820312 18.34375 -6.476562 18.417969 -5.992188 C 18.488281 -5.550781 18.578125 -5.050781 18.683594 -4.492188 C 18.796875 -3.910156 18.902344 -3.324219 19.007812 -2.730469 C 19.105469 -2.160156 19.195312 -1.671875 19.285156 -1.265625 C 19.378906 -0.816406 19.441406 -0.507812 19.464844 -0.339844 L 18.34375 -0.179688 L 19.417969 -0.539062 C 19.535156 -0.183594 19.519531 0.152344 19.363281 0.460938 C 19.238281 0.714844 19.046875 0.898438 18.789062 1.019531 C 18.621094 1.09375 18.441406 1.132812 18.25 1.132812 Z M 18.25 -1.132812 C 18.109375 -1.132812 17.972656 -1.101562 17.839844 -1.039062 C 17.613281 -0.9375 17.449219 -0.773438 17.335938 -0.550781 C 17.210938 -0.300781 17.1875 -0.0585938 17.265625 0.175781 L 17.234375 0.0820312 L 17.21875 -0.0195312 C 17.203125 -0.136719 17.152344 -0.390625 17.066406 -0.789062 C 16.972656 -1.226562 16.875 -1.746094 16.773438 -2.347656 C 16.671875 -2.921875 16.570312 -3.496094 16.460938 -4.0625 C 16.347656 -4.648438 16.253906 -5.175781 16.179688 -5.644531 C 16.113281 -6.0625 16.066406 -6.335938 16.035156 -6.464844 L 16.019531 -6.515625 L 15.652344 -8.988281 C 15.53125 -9.785156 15.402344 -10.582031 15.261719 -11.378906 L 16.378906 -11.574219 L 15.265625 -11.351562 C 15.183594 -11.765625 15.082031 -12.335938 14.957031 -13.0625 L 14.582031 -15.3125 L 14.21875 -17.4375 C 14.109375 -18.0625 14.035156 -18.472656 13.996094 -18.664062 L 15.109375 -18.886719 L 14.007812 -18.613281 C 14.035156 -18.503906 14.089844 -18.398438 14.164062 -18.296875 C 14.25 -18.183594 14.359375 -18.089844 14.484375 -18.015625 C 14.648438 -17.921875 14.828125 -17.875 15.019531 -17.875 L 4.019531 -17.875 C 4.300781 -17.875 4.542969 -17.972656 4.746094 -18.175781 C 4.871094 -18.304688 4.957031 -18.449219 4.996094 -18.613281 L 3.898438 -18.886719 L 5.03125 -18.886719 C 5.03125 -18.726562 4.988281 -18.363281 4.894531 -17.800781 C 4.816406 -17.304688 4.722656 -16.671875 4.613281 -15.914062 C 4.5 -15.140625 4.371094 -14.324219 4.230469 -13.460938 L 3.824219 -10.957031 C 3.691406 -10.132812 3.570312 -9.40625 3.457031 -8.777344 C 3.347656 -8.160156 3.273438 -7.726562 3.234375 -7.472656 L 3.226562 -7.414062 L 3.210938 -7.355469 C 3.117188 -6.996094 3 -6.476562 2.863281 -5.804688 L 2.425781 -3.640625 L 2.015625 -1.632812 C 1.894531 -1.03125 1.8125 -0.636719 1.769531 -0.449219 L 1.769531 -0.433594 L 1.765625 -0.421875 C 1.757812 -0.390625 1.75 -0.351562 1.746094 -0.3125 C 1.730469 -0.171875 1.707031 -0.0351562 1.671875 0.09375 L 0.574219 -0.179688 L 1.691406 0.00390625 C 1.722656 -0.175781 1.691406 -0.363281 1.59375 -0.550781 C 1.496094 -0.75 1.351562 -0.898438 1.15625 -1.007812 C 1 -1.089844 0.835938 -1.132812 0.664062 -1.132812 L 6.769531 -1.132812 C 6.589844 -1.132812 6.417969 -1.089844 6.257812 -1 C 6.09375 -0.90625 5.960938 -0.78125 5.863281 -0.621094 C 5.773438 -0.464844 5.726562 -0.308594 5.726562 -0.152344 L 5.726562 -0.203125 C 5.75 -0.664062 5.816406 -1.304688 5.933594 -2.136719 C 6.046875 -2.941406 6.183594 -3.832031 6.347656 -4.808594 C 6.507812 -5.785156 6.679688 -6.757812 6.863281 -7.734375 C 7.042969 -8.695312 7.203125 -9.578125 7.34375 -10.378906 C 7.484375 -11.171875 7.582031 -11.777344 7.640625 -12.199219 C 7.671875 -12.449219 7.757812 -12.761719 7.898438 -13.140625 C 8.039062 -13.503906 8.253906 -13.789062 8.546875 -13.988281 C 8.863281 -14.210938 9.222656 -14.304688 9.628906 -14.273438 L 9.550781 -13.144531 L 9.550781 -14.277344 C 9.960938 -14.277344 10.316406 -14.128906 10.613281 -13.832031 C 10.816406 -13.632812 10.96875 -13.371094 11.078125 -13.050781 C 11.210938 -12.648438 11.289062 -12.171875 11.316406 -11.625 L 10.183594 -11.574219 L 11.3125 -11.65625 C 11.332031 -11.390625 11.375 -10.976562 11.445312 -10.410156 C 11.515625 -9.832031 11.59375 -9.234375 11.683594 -8.605469 L 11.925781 -6.914062 C 11.992188 -6.441406 12.035156 -6.164062 12.050781 -6.085938 L 12.070312 -5.972656 L 12.070312 -5.863281 C 12.070312 -5.550781 11.996094 -5.269531 11.84375 -5.015625 C 11.683594 -4.753906 11.457031 -4.550781 11.164062 -4.414062 L 10.679688 -4.183594 L 9.398438 -4.183594 C 9.019531 -4.183594 8.726562 -4.234375 8.527344 -4.335938 L 9.035156 -5.347656 L 9.035156 -4.214844 C 9.117188 -4.214844 9.1875 -4.226562 9.242188 -4.242188 C 9.480469 -4.320312 9.65625 -4.480469 9.777344 -4.722656 L 8.761719 -5.226562 L 9.890625 -5.105469 L 9.722656 -3.566406 C 9.652344 -2.90625 9.589844 -2.253906 9.527344 -1.601562 C 9.46875 -0.964844 9.429688 -0.460938 9.410156 -0.0898438 L 8.28125 -0.152344 L 9.414062 -0.152344 C 9.414062 -0.367188 9.339844 -0.5625 9.195312 -0.746094 C 8.988281 -1.003906 8.722656 -1.132812 8.402344 -1.132812 Z M 18.25 -1.132812 "/></g></g></g></g><g fill="#000000" fill-opacity="1"><g transform="translate(1.144527, 24.826934)"><g><path d="M 18.25 0 L 8.40625 0 C 8.320312 0 8.28125 -0.0507812 8.28125 -0.15625 C 8.300781 -0.53125 8.335938 -1.046875 8.390625 -1.703125 C 8.453125 -2.359375 8.519531 -3.019531 8.59375 -3.6875 C 8.664062 -4.351562 8.722656 -4.867188 8.765625 -5.234375 C 8.785156 -5.265625 8.820312 -5.289062 8.875 -5.3125 C 8.9375 -5.332031 8.988281 -5.34375 9.03125 -5.34375 C 9.070312 -5.320312 9.191406 -5.3125 9.390625 -5.3125 C 9.597656 -5.3125 9.804688 -5.3125 10.015625 -5.3125 C 10.222656 -5.3125 10.359375 -5.3125 10.421875 -5.3125 C 10.421875 -5.3125 10.503906 -5.351562 10.671875 -5.4375 C 10.847656 -5.519531 10.9375 -5.660156 10.9375 -5.859375 C 10.914062 -5.960938 10.867188 -6.257812 10.796875 -6.75 C 10.734375 -7.25 10.65625 -7.8125 10.5625 -8.4375 C 10.46875 -9.070312 10.382812 -9.679688 10.3125 -10.265625 C 10.25 -10.859375 10.207031 -11.296875 10.1875 -11.578125 C 10.164062 -12.015625 10.101562 -12.382812 10 -12.6875 C 9.894531 -12.988281 9.742188 -13.140625 9.546875 -13.140625 C 9.265625 -13.160156 9.066406 -13.023438 8.953125 -12.734375 C 8.847656 -12.441406 8.785156 -12.21875 8.765625 -12.0625 C 8.703125 -11.613281 8.597656 -10.984375 8.453125 -10.171875 C 8.316406 -9.367188 8.15625 -8.484375 7.96875 -7.515625 C 7.789062 -6.554688 7.617188 -5.59375 7.453125 -4.625 C 7.296875 -3.65625 7.160156 -2.769531 7.046875 -1.96875 C 6.941406 -1.175781 6.878906 -0.570312 6.859375 -0.15625 C 6.859375 -0.0507812 6.828125 0 6.765625 0 L 0.671875 0 C 0.585938 0 0.554688 -0.0625 0.578125 -0.1875 C 0.597656 -0.257812 0.613281 -0.34375 0.625 -0.4375 C 0.632812 -0.53125 0.648438 -0.613281 0.671875 -0.6875 C 0.703125 -0.875 0.78125 -1.265625 0.90625 -1.859375 C 1.03125 -2.453125 1.164062 -3.117188 1.3125 -3.859375 C 1.46875 -4.609375 1.613281 -5.332031 1.75 -6.03125 C 1.894531 -6.726562 2.015625 -7.265625 2.109375 -7.640625 C 2.148438 -7.898438 2.226562 -8.34375 2.34375 -8.96875 C 2.457031 -9.59375 2.578125 -10.3125 2.703125 -11.125 C 2.835938 -11.945312 2.972656 -12.785156 3.109375 -13.640625 C 3.253906 -14.492188 3.378906 -15.300781 3.484375 -16.0625 C 3.597656 -16.832031 3.691406 -17.46875 3.765625 -17.96875 C 3.847656 -18.476562 3.890625 -18.785156 3.890625 -18.890625 C 3.910156 -18.960938 3.953125 -19 4.015625 -19 L 15.015625 -19 C 15.054688 -19 15.085938 -18.960938 15.109375 -18.890625 C 15.148438 -18.679688 15.222656 -18.257812 15.328125 -17.625 C 15.441406 -17 15.5625 -16.289062 15.6875 -15.5 C 15.820312 -14.71875 15.945312 -13.96875 16.0625 -13.25 C 16.1875 -12.53125 16.289062 -11.972656 16.375 -11.578125 C 16.519531 -10.765625 16.648438 -9.957031 16.765625 -9.15625 C 16.890625 -8.351562 17.015625 -7.546875 17.140625 -6.734375 C 17.171875 -6.578125 17.222656 -6.269531 17.296875 -5.8125 C 17.367188 -5.363281 17.457031 -4.851562 17.5625 -4.28125 C 17.675781 -3.707031 17.785156 -3.125 17.890625 -2.53125 C 17.992188 -1.945312 18.085938 -1.441406 18.171875 -1.015625 C 18.265625 -0.597656 18.320312 -0.320312 18.34375 -0.1875 C 18.382812 -0.0625 18.351562 0 18.25 0 Z M 18.25 0 "/></g></g></g></g></g><g transform="matrix(1, 0, 0, 1, 7, 2)"><g clip-path="url(#b73f02bfa0)"><g clip-path="url(#cf5ee4fd0b)"><g fill="#ffffff" fill-opacity="1"><g transform="translate(0.830953, 24.826934)"><g><path d="M 20.382812 -9.125 C 20.382812 -8.789062 20.386719 -8.277344 20.398438 -7.585938 C 20.40625 -6.894531 20.421875 -6.128906 20.441406 -5.285156 C 20.460938 -4.445312 20.488281 -3.640625 20.515625 -2.871094 C 20.546875 -2.085938 20.566406 -1.441406 20.578125 -0.929688 L 20.59375 -0.171875 C 20.59375 0.101562 20.53125 0.339844 20.410156 0.546875 C 20.296875 0.730469 20.148438 0.875 19.960938 0.980469 C 19.777344 1.082031 19.582031 1.132812 19.371094 1.132812 L 13.085938 1.132812 C 12.679688 1.132812 12.355469 0.980469 12.109375 0.671875 C 11.921875 0.4375 11.832031 0.164062 11.832031 -0.152344 L 11.832031 -0.179688 C 11.851562 -1 11.84375 -1.808594 11.816406 -2.601562 C 11.785156 -3.433594 11.769531 -4.316406 11.769531 -5.257812 C 11.769531 -5.140625 11.804688 -5.023438 11.878906 -4.90625 C 11.964844 -4.769531 12.078125 -4.675781 12.214844 -4.617188 C 12.304688 -4.582031 12.402344 -4.5625 12.507812 -4.558594 C 12.699219 -4.558594 12.871094 -4.605469 13.035156 -4.707031 C 13.179688 -4.792969 13.289062 -4.910156 13.367188 -5.050781 C 13.402344 -5.117188 13.425781 -5.183594 13.441406 -5.246094 L 12.328125 -5.46875 L 13.445312 -5.273438 C 13.265625 -4.257812 13.117188 -3.339844 12.996094 -2.523438 C 12.875 -1.6875 12.730469 -0.816406 12.566406 0.0820312 L 12.5625 0.117188 L 12.550781 0.152344 C 12.492188 0.398438 12.375 0.601562 12.207031 0.769531 C 11.96875 1.011719 11.675781 1.132812 11.332031 1.132812 L 8.492188 1.132812 C 8.316406 1.132812 8.148438 1.097656 7.992188 1.027344 C 7.800781 0.941406 7.640625 0.816406 7.515625 0.648438 C 7.351562 0.429688 7.265625 0.171875 7.265625 -0.121094 L 8.402344 -0.121094 L 7.292969 0.121094 C 7.101562 -0.757812 6.972656 -1.671875 6.90625 -2.613281 C 6.851562 -3.445312 6.738281 -4.257812 6.566406 -5.050781 C 6.566406 -5.054688 6.566406 -5.058594 6.566406 -5.0625 C 6.566406 -5.058594 6.570312 -5.050781 6.570312 -5.042969 C 6.589844 -4.996094 6.617188 -4.953125 6.65625 -4.90625 C 6.808594 -4.714844 7.007812 -4.609375 7.261719 -4.59375 C 7.417969 -4.585938 7.566406 -4.617188 7.714844 -4.6875 C 7.875 -4.769531 8 -4.878906 8.09375 -5.027344 C 8.144531 -5.109375 8.179688 -5.191406 8.199219 -5.273438 C 8.199219 -5.292969 8.203125 -5.304688 8.203125 -5.320312 L 7.070312 -5.320312 L 8.203125 -5.347656 C 8.226562 -4.566406 8.199219 -3.671875 8.125 -2.667969 C 8.058594 -1.726562 8.023438 -0.890625 8.023438 -0.152344 C 8.023438 0.109375 7.960938 0.339844 7.839844 0.546875 C 7.726562 0.730469 7.578125 0.875 7.390625 0.980469 C 7.207031 1.082031 7.011719 1.132812 6.800781 1.132812 L 0.90625 1.132812 C 0.503906 1.132812 0.179688 0.980469 -0.0703125 0.671875 C -0.253906 0.4375 -0.347656 0.164062 -0.347656 -0.152344 L -0.347656 -0.378906 C -0.308594 -1.375 -0.277344 -2.515625 -0.257812 -3.796875 L -0.210938 -7.71875 L -0.195312 -11.457031 C -0.195312 -12.617188 -0.203125 -13.59375 -0.210938 -14.382812 L -0.226562 -15.851562 C -0.226562 -16.335938 -0.230469 -16.816406 -0.242188 -17.292969 C -0.25 -17.78125 -0.257812 -18.285156 -0.257812 -18.796875 L -0.257812 -18.855469 C -0.257812 -19.171875 -0.164062 -19.445312 0.0234375 -19.675781 C 0.269531 -19.984375 0.59375 -20.140625 0.996094 -20.140625 L 9.246094 -20.140625 C 9.457031 -20.140625 9.65625 -20.089844 9.835938 -19.984375 C 9.980469 -19.902344 10.105469 -19.792969 10.207031 -19.65625 C 10.3125 -19.515625 10.390625 -19.347656 10.4375 -19.160156 L 10.453125 -19.09375 L 10.460938 -19.023438 C 10.566406 -18.171875 10.640625 -17.304688 10.679688 -16.433594 C 10.71875 -15.648438 10.8125 -14.914062 10.957031 -14.230469 L 10.964844 -14.203125 L 10.96875 -14.175781 C 10.945312 -14.3125 10.886719 -14.441406 10.792969 -14.554688 C 10.695312 -14.675781 10.574219 -14.761719 10.433594 -14.8125 C 10.328125 -14.851562 10.203125 -14.855469 10.058594 -14.820312 L 10.335938 -13.71875 L 9.914062 -14.769531 C 9.945312 -14.785156 9.96875 -14.792969 9.988281 -14.800781 C 9.992188 -14.804688 9.996094 -14.804688 9.996094 -14.808594 C 9.992188 -14.804688 9.984375 -14.800781 9.976562 -14.796875 C 9.789062 -14.683594 9.652344 -14.53125 9.566406 -14.34375 C 9.542969 -14.296875 9.527344 -14.253906 9.519531 -14.214844 C 9.523438 -14.238281 9.53125 -14.289062 9.535156 -14.375 L 10.667969 -14.292969 L 9.535156 -14.292969 C 9.535156 -14.480469 9.554688 -14.871094 9.597656 -15.460938 C 9.636719 -16.039062 9.695312 -16.664062 9.765625 -17.332031 C 9.839844 -17.992188 9.90625 -18.5625 9.964844 -19.03125 L 9.976562 -19.097656 L 9.992188 -19.160156 C 10.050781 -19.40625 10.164062 -19.609375 10.335938 -19.777344 C 10.574219 -20.019531 10.867188 -20.140625 11.210938 -20.140625 L 19.308594 -20.140625 C 19.710938 -20.140625 20.039062 -19.984375 20.285156 -19.675781 C 20.472656 -19.445312 20.5625 -19.171875 20.5625 -18.855469 C 20.5625 -17.230469 20.53125 -15.601562 20.472656 -13.964844 C 20.414062 -12.355469 20.382812 -10.742188 20.382812 -9.125 Z M 18.117188 -9.125 C 18.117188 -10.773438 18.144531 -12.414062 18.207031 -14.046875 C 18.265625 -15.65625 18.296875 -17.257812 18.296875 -18.855469 C 18.296875 -18.640625 18.371094 -18.441406 18.515625 -18.261719 C 18.722656 -18.003906 18.988281 -17.875 19.308594 -17.875 L 11.210938 -17.875 C 11.492188 -17.875 11.734375 -17.972656 11.9375 -18.175781 C 12.066406 -18.304688 12.148438 -18.449219 12.191406 -18.613281 L 11.089844 -18.886719 L 12.214844 -18.738281 C 12.15625 -18.285156 12.089844 -17.734375 12.019531 -17.089844 C 11.953125 -16.445312 11.898438 -15.851562 11.859375 -15.300781 C 11.820312 -14.761719 11.800781 -14.425781 11.800781 -14.292969 L 11.800781 -14.253906 L 11.796875 -14.210938 C 11.785156 -14.015625 11.761719 -13.847656 11.730469 -13.714844 C 11.640625 -13.320312 11.445312 -13.035156 11.144531 -12.851562 C 11.042969 -12.792969 10.914062 -12.730469 10.753906 -12.667969 L 10.683594 -12.636719 L 10.609375 -12.621094 C 10.304688 -12.542969 9.988281 -12.566406 9.660156 -12.683594 C 9.410156 -12.777344 9.199219 -12.921875 9.035156 -13.125 C 8.878906 -13.320312 8.777344 -13.546875 8.734375 -13.804688 L 9.851562 -13.992188 L 8.742188 -13.75 C 8.570312 -14.558594 8.460938 -15.414062 8.417969 -16.324219 C 8.378906 -17.144531 8.308594 -17.949219 8.210938 -18.75 L 9.335938 -18.886719 L 8.238281 -18.613281 C 8.265625 -18.503906 8.316406 -18.398438 8.394531 -18.296875 C 8.480469 -18.183594 8.585938 -18.089844 8.710938 -18.015625 C 8.878906 -17.921875 9.054688 -17.875 9.246094 -17.875 L 0.996094 -17.875 C 1.320312 -17.875 1.585938 -18.003906 1.792969 -18.261719 C 1.9375 -18.441406 2.007812 -18.640625 2.007812 -18.855469 L 2.007812 -18.796875 C 2.007812 -18.300781 2.015625 -17.8125 2.023438 -17.339844 C 2.035156 -16.847656 2.039062 -16.359375 2.039062 -15.875 L 2.054688 -14.414062 C 2.066406 -13.613281 2.070312 -12.625 2.070312 -11.449219 L 2.054688 -7.691406 L 2.007812 -3.757812 C 1.988281 -2.460938 1.957031 -1.304688 1.917969 -0.285156 L 0.785156 -0.332031 L 1.917969 -0.332031 L 1.917969 -0.152344 C 1.917969 -0.367188 1.847656 -0.5625 1.699219 -0.746094 C 1.492188 -1.003906 1.230469 -1.132812 0.90625 -1.132812 L 6.800781 -1.132812 C 6.617188 -1.132812 6.449219 -1.089844 6.289062 -1 C 6.121094 -0.90625 5.992188 -0.78125 5.894531 -0.621094 C 5.804688 -0.464844 5.757812 -0.308594 5.757812 -0.152344 C 5.757812 -0.945312 5.792969 -1.835938 5.867188 -2.832031 C 5.933594 -3.761719 5.957031 -4.582031 5.9375 -5.289062 L 5.9375 -5.320312 C 5.9375 -5.675781 6.015625 -5.984375 6.175781 -6.234375 C 6.3125 -6.453125 6.492188 -6.613281 6.714844 -6.722656 C 6.925781 -6.828125 7.152344 -6.871094 7.394531 -6.859375 C 7.816406 -6.832031 8.164062 -6.652344 8.429688 -6.3125 C 8.597656 -6.101562 8.714844 -5.839844 8.785156 -5.527344 C 8.976562 -4.625 9.105469 -3.707031 9.167969 -2.765625 C 9.226562 -1.9375 9.339844 -1.136719 9.507812 -0.363281 L 9.535156 -0.242188 L 9.535156 -0.121094 C 9.535156 -0.332031 9.464844 -0.527344 9.328125 -0.710938 C 9.21875 -0.855469 9.082031 -0.96875 8.910156 -1.042969 C 8.777344 -1.101562 8.636719 -1.132812 8.492188 -1.132812 L 11.332031 -1.132812 C 11.050781 -1.132812 10.808594 -1.03125 10.605469 -0.832031 C 10.476562 -0.703125 10.394531 -0.558594 10.351562 -0.394531 L 11.453125 -0.121094 L 10.335938 -0.324219 C 10.496094 -1.195312 10.636719 -2.039062 10.753906 -2.855469 C 10.875 -3.691406 11.03125 -4.628906 11.214844 -5.667969 L 11.214844 -5.679688 L 11.21875 -5.691406 C 11.300781 -6.113281 11.511719 -6.429688 11.84375 -6.632812 C 12.222656 -6.871094 12.636719 -6.894531 13.078125 -6.714844 C 13.386719 -6.585938 13.625 -6.386719 13.796875 -6.113281 C 13.957031 -5.863281 14.035156 -5.578125 14.035156 -5.257812 C 14.035156 -4.34375 14.050781 -3.488281 14.082031 -2.6875 C 14.113281 -1.847656 14.117188 -0.992188 14.097656 -0.125 L 12.964844 -0.152344 L 14.097656 -0.152344 C 14.097656 -0.367188 14.023438 -0.5625 13.878906 -0.746094 C 13.671875 -1.003906 13.40625 -1.132812 13.085938 -1.132812 L 19.371094 -1.132812 C 19.1875 -1.132812 19.019531 -1.089844 18.859375 -1 C 18.695312 -0.90625 18.5625 -0.78125 18.464844 -0.621094 C 18.375 -0.464844 18.328125 -0.300781 18.328125 -0.128906 L 18.3125 -0.882812 C 18.300781 -1.378906 18.28125 -2.011719 18.253906 -2.78125 C 18.222656 -3.5625 18.195312 -4.378906 18.175781 -5.230469 C 18.15625 -6.082031 18.140625 -6.855469 18.132812 -7.554688 C 18.121094 -8.253906 18.117188 -8.777344 18.117188 -9.125 Z M 18.117188 -9.125 "/></g></g></g></g><g fill="#000000" fill-opacity="1"><g transform="translate(0.830953, 24.826934)"><g><path d="M 19.25 -9.125 C 19.25 -8.78125 19.253906 -8.257812 19.265625 -7.5625 C 19.273438 -6.875 19.289062 -6.101562 19.3125 -5.25 C 19.332031 -4.40625 19.359375 -3.59375 19.390625 -2.8125 C 19.421875 -2.039062 19.4375 -1.40625 19.4375 -0.90625 C 19.445312 -0.40625 19.453125 -0.15625 19.453125 -0.15625 C 19.453125 -0.0507812 19.425781 0 19.375 0 L 13.078125 0 C 13.003906 0 12.96875 -0.0507812 12.96875 -0.15625 C 12.988281 -1 12.984375 -1.828125 12.953125 -2.640625 C 12.921875 -3.460938 12.90625 -4.335938 12.90625 -5.265625 C 12.90625 -5.460938 12.816406 -5.59375 12.640625 -5.65625 C 12.472656 -5.726562 12.367188 -5.664062 12.328125 -5.46875 C 12.148438 -4.4375 12 -3.507812 11.875 -2.6875 C 11.75 -1.863281 11.609375 -1.007812 11.453125 -0.125 C 11.429688 -0.0390625 11.390625 0 11.328125 0 L 8.484375 0 C 8.429688 0 8.40625 -0.0390625 8.40625 -0.125 C 8.21875 -0.945312 8.09375 -1.800781 8.03125 -2.6875 C 7.976562 -3.570312 7.859375 -4.4375 7.671875 -5.28125 C 7.609375 -5.570312 7.492188 -5.71875 7.328125 -5.71875 C 7.160156 -5.726562 7.078125 -5.59375 7.078125 -5.3125 C 7.085938 -4.570312 7.054688 -3.71875 6.984375 -2.75 C 6.921875 -1.78125 6.890625 -0.914062 6.890625 -0.15625 C 6.890625 -0.0507812 6.859375 0 6.796875 0 L 0.90625 0 C 0.820312 0 0.78125 -0.0507812 0.78125 -0.15625 L 0.78125 -0.328125 C 0.820312 -1.335938 0.851562 -2.488281 0.875 -3.78125 C 0.894531 -5.070312 0.910156 -6.378906 0.921875 -7.703125 C 0.929688 -9.035156 0.9375 -10.285156 0.9375 -11.453125 C 0.9375 -12.617188 0.929688 -13.597656 0.921875 -14.390625 C 0.910156 -15.191406 0.90625 -15.679688 0.90625 -15.859375 C 0.90625 -16.347656 0.898438 -16.832031 0.890625 -17.3125 C 0.878906 -17.800781 0.875 -18.296875 0.875 -18.796875 C 0.875 -18.816406 0.875 -18.835938 0.875 -18.859375 C 0.875 -18.953125 0.914062 -19 1 -19 L 9.25 -19 C 9.289062 -19 9.320312 -18.960938 9.34375 -18.890625 C 9.4375 -18.054688 9.503906 -17.21875 9.546875 -16.375 C 9.585938 -15.53125 9.6875 -14.734375 9.84375 -13.984375 C 9.863281 -13.867188 9.929688 -13.789062 10.046875 -13.75 C 10.160156 -13.707031 10.253906 -13.695312 10.328125 -13.71875 C 10.429688 -13.757812 10.507812 -13.796875 10.5625 -13.828125 C 10.613281 -13.859375 10.648438 -14.015625 10.671875 -14.296875 C 10.671875 -14.453125 10.6875 -14.8125 10.71875 -15.375 C 10.757812 -15.945312 10.816406 -16.554688 10.890625 -17.203125 C 10.960938 -17.859375 11.03125 -18.421875 11.09375 -18.890625 C 11.113281 -18.960938 11.15625 -19 11.21875 -19 L 19.3125 -19 C 19.394531 -19 19.4375 -18.953125 19.4375 -18.859375 C 19.4375 -17.242188 19.40625 -15.625 19.34375 -14 C 19.28125 -12.382812 19.25 -10.757812 19.25 -9.125 Z M 19.25 -9.125 "/></g></g></g></g></g><g transform="matrix(1, 0, 0, 1, 57, 27)"><g clip-path="url(#0d481af074)"><g clip-path="url(#c935d6b86f)"><g fill="#222222" fill-opacity="1"><g transform="translate(0.814116, 4.462139)"><g><path d="M 1.820312 -2.203125 L 1.820312 -1.78125 L 1.128906 -1.78125 L 1.128906 -1.835938 L 1.183594 -1.835938 L 1.183594 0.0546875 L 0.640625 0.0546875 L 0.640625 -1.835938 L 0.695312 -1.835938 L 0.695312 -1.78125 L 0.0078125 -1.78125 L 0.0078125 -2.257812 L 1.820312 -2.257812 Z M 1.710938 -2.203125 L 1.765625 -2.203125 L 1.765625 -2.148438 L 0.0585938 -2.148438 L 0.0585938 -2.203125 L 0.113281 -2.203125 L 0.113281 -1.835938 L 0.0585938 -1.835938 L 0.0585938 -1.890625 L 0.75 -1.890625 L 0.75 0 L 0.695312 0 L 0.695312 -0.0546875 L 1.128906 -0.0546875 L 1.128906 0 L 1.074219 0 L 1.074219 -1.890625 L 1.765625 -1.890625 L 1.765625 -1.835938 L 1.710938 -1.835938 Z M 1.710938 -2.203125 "/></g></g></g></g><g fill="#222222" fill-opacity="1"><g transform="translate(4.168057, 4.462139)"><g><path d="M 0.230469 -2.257812 L 0.777344 -2.257812 L 0.777344 0.0546875 L 0.230469 0.0546875 Z M 0.339844 -2.148438 L 0.339844 -0.0546875 L 0.667969 -0.0546875 L 0.667969 -2.148438 Z M 0.339844 -2.148438 "/></g></g></g><g clip-path="url(#1ef0dcf67f)"><g fill="#000000" fill-opacity="1"><g transform="translate(0.814116, 4.462139)"><g><path d="M 1.765625 -2.203125 L 1.765625 -1.84375 L 1.140625 -1.84375 L 1.140625 0 L 0.703125 0 L 0.703125 -1.84375 L 0.0625 -1.84375 L 0.0625 -2.203125 Z M 1.765625 -2.203125 "/></g></g></g></g><g fill="#000000" fill-opacity="1"><g transform="translate(4.168057, 4.462139)"><g><path d="M 0.71875 0 L 0.28125 0 L 0.28125 -2.203125 L 0.71875 -2.203125 Z M 0.71875 0 "/></g></g></g></g></g></svg>